<?xml version="1.0" encoding="utf-8"?>
<svg xmlns="http://www.w3.org/2000/svg" viewBox="54.0137 78.3 235.4843 3.543" width="235.484px" height="3.543px">
  <defs>
    <clipPath id="clip_5">
      <path transform="matrix(.1,0,0,-.1,0,792)" d="M540 7090.34H2894.98V7148.2307H540Z"/>
    </clipPath>
  </defs>
  <g clip-path="url(#clip_5)" transform="matrix(1, 0, 0, 1, 2.842170943040401e-14, 0)">
    <path transform="matrix(.1,0,0,-.1,0,792)" stroke-width="7.5" stroke-linecap="butt" stroke-miterlimit="4" stroke-linejoin="miter" fill="none" stroke="#35566a" d="M540.137 7119.27H2807.5"/>
    <path transform="matrix(.1,0,0,-.1,0,792)" d="M2894.98 7119.27C2894.98 7119.27 2714.33 7101.57 2689.91 7101.57L2669.91 7119.27 2689.91 7137C2714.33 7137 2894.98 7119.27 2894.98 7119.27" fill="#35566a"/>
    <path transform="matrix(.1,0,0,-.1,0,792)" d="M2641.94 7119.27C2641.94 7127 2648.2 7133.25 2655.92 7133.25 2663.65 7133.25 2669.91 7127 2669.91 7119.27 2669.91 7111.55 2663.65 7105.3 2655.92 7105.3 2648.2 7105.3 2641.94 7111.55 2641.94 7119.27" fill="#35566a"/>
    <path transform="matrix(.1,0,0,-.1,0,792)" d="M2624.14 7119.27C2624.14 7124.2 2628.12 7128.18 2633.04 7128.18 2637.96 7128.18 2641.94 7124.2 2641.94 7119.27 2641.94 7114.36 2637.96 7110.38 2633.04 7110.38 2628.12 7110.38 2624.14 7114.36 2624.14 7119.27" fill="#35566a"/>
  </g>
</svg>