<?xml version="1.0" encoding="UTF-8" standalone="no"?>
<!-- Created with Inkscape (http://www.inkscape.org/) -->

<svg
   width="150mm"
   height="150mm"
   viewBox="0 0 150 150"
   version="1.1"
   id="svg5"
   xmlns="http://www.w3.org/2000/svg"
   xmlns:svg="http://www.w3.org/2000/svg">
  <defs
     id="defs2" />
  <g
     id="layer2"
     style="display:none">
    <path
       d="m 805.49765,2549.5544 h 43.93572 v 398.3332 h -43.93572 v 57.1219 h 207.23405 c 24.3882,0 45.9943,-3.4125 64.7816,-10.2561 18.8058,-6.8434 34.6627,-16.1166 47.6079,-27.8191 12.9266,-11.721 22.7004,-25.7605 29.2843,-42.1182 6.5837,-16.3391 9.885,-34.0322 9.885,-53.079 v -8.7908 c 0,-14.1507 -2.207,-27.0959 -6.5839,-38.7984 -4.3954,-11.7211 -10.497,-22.2183 -18.3051,-31.4913 -7.8079,-9.273 -16.9696,-17.2108 -27.4666,-23.7946 -10.4971,-6.6025 -21.8473,-11.61 -34.0507,-15.0224 v -8.7722 c 24.4066,-6.8436 44.9186,-19.9 61.5173,-39.1881 16.5989,-19.2692 24.889,-42.8229 24.889,-70.6605 v -8.7909 c 0,-19.0284 -3.3013,-36.7213 -9.885,-53.0789 -6.5839,-16.3577 -16.3577,-30.5084 -29.2843,-42.4706 -12.9452,-11.9623 -28.8021,-21.3466 -47.6079,-28.1903 -18.7873,-6.8433 -40.3934,-10.2558 -64.7816,-10.2558 H 805.49765 Z m 105.43461,0 h 97.38544 c 28.8022,0 52.2259,7.1959 70.3083,21.6062 18.0454,14.3917 27.0959,34.2915 27.0959,59.6812 v 4.377 c 0,26.3725 -8.5499,47.2368 -25.6308,62.6116 -17.0993,15.3746 -40.2821,23.0712 -69.5663,23.0712 h -99.59254 z m 0,228.4507 h 99.59254 c 29.2842,0 52.467,7.5669 69.5663,22.7005 17.0809,15.1335 25.6308,35.8868 25.6308,62.2407 v 4.3955 c 0,24.8888 -9.0505,44.5477 -27.0959,58.9395 -18.0824,14.4103 -41.5061,21.6063 -70.3083,21.6063 H 910.93226 Z M 1317.3329,2656.454 c 1.4653,-36.1094 12.6856,-65.1709 33.6797,-87.1295 20.9942,-21.9772 50.2786,-32.9565 87.8714,-32.9565 17.0811,0 31.9736,1.9474 44.6591,5.8606 12.7039,3.9132 23.5534,9.273 32.5854,16.1165 9.032,6.8249 16.3577,14.7628 21.9771,23.7948 5.6011,9.0319 10.1263,18.6759 13.5388,28.9317 l 54.1916,-14.6515 c -10.2559,-33.6981 -29.173,-61.1463 -56.7511,-82.3817 -27.578,-21.2353 -64.7999,-31.8435 -111.666,-31.8435 -25.8718,0 -49.6665,4.5067 -71.4026,13.5385 -21.7174,9.032 -40.3933,21.8474 -56.009,38.4461 -15.6159,16.5986 -27.8377,36.3689 -36.6101,59.3106 -8.7908,22.9414 -13.1862,48.331 -13.1862,76.15 v 17.5819 c 0,25.3711 4.5252,49.0544 13.5571,71.013 9.032,21.9771 21.5877,40.8941 37.7043,56.7511 16.0979,15.857 35.015,28.3198 56.7511,37.3518 21.7173,9.032 45.2709,13.5387 70.6605,13.5387 29.785,0 55.5272,-5.4896 77.2445,-16.469 21.7361,-10.9792 39.5403,-24.5365 53.45,-40.6345 13.928,-16.1165 24.1655,-33.6983 30.7679,-52.7265 6.5839,-19.047 9.8665,-36.61 9.8665,-52.7266 v -46.866 z m 121.5511,155.2309 c -16.1166,0 -31.1203,-2.5593 -45.0298,-7.678 -13.9096,-5.1374 -26.1316,-12.3333 -36.6101,-21.6063 -10.497,-9.273 -19.0469,-20.1411 -25.6306,-32.5856 -6.6025,-12.4442 -10.8681,-25.983 -12.8153,-40.6344 h 234.3114 c -0.9645,15.6159 -4.7665,29.7849 -11.3504,42.4705 -6.5837,12.6855 -15.1335,23.4237 -25.6307,32.2145 -10.4969,8.791 -22.4593,15.616 -35.868,20.512 -13.4275,4.8778 -27.2257,7.3073 -41.3765,7.3073 z m 360.258,-49.7778 c 0,-17.5817 7.4556,-31.009 22.3296,-40.282 14.8925,-9.2731 42.1181,-15.3747 81.6399,-18.3051 42.4892,-3.4124 74.815,-13.5387 97.0333,-30.3785 22.2182,-16.8399 33.3087,-41.3764 33.3087,-73.6095 v -4.3769 c 0,-17.5816 -3.5237,-33.3272 -10.6084,-47.237 -7.0847,-13.9095 -16.8398,-25.7418 -29.3028,-35.5155 -12.4443,-9.7555 -27.5781,-17.211 -45.3824,-22.3297 -17.8227,-5.1188 -37.2219,-7.678 -58.216,-7.678 -28.3201,0 -52.5968,3.7834 -72.8677,11.3316 -20.2523,7.5668 -37.0921,17.5818 -50.5196,30.0448 -13.4274,12.4258 -23.5536,26.595 -30.3784,42.452 -6.8436,15.8755 -10.7382,31.862 -11.7213,47.9601 l 54.1918,13.1862 c 2.4295,-27.8376 13.1677,-50.167 32.2145,-67.0068 19.0284,-16.84 44.418,-25.2599 76.1503,-25.2599 26.8549,0 48.4425,5.2485 64.8002,15.7455 16.3575,10.4971 24.5364,25.2597 24.5364,44.3067 0,20.4935 -8.0491,35.1449 -24.1655,43.9358 -16.1166,8.7722 -42.2295,14.3917 -78.3573,16.8399 -41.9698,2.9302 -74.1845,12.6855 -96.6438,29.2842 -22.4593,16.5988 -33.6982,40.7643 -33.6982,72.4966 v 4.3955 c 0,17.081 3.6721,32.0849 10.9978,45.03 7.3072,12.9267 17.2108,23.7947 29.6553,32.5854 12.4444,8.791 26.4837,15.3749 42.0995,19.7701 15.6158,4.3955 31.9735,6.584 49.0545,6.584 23.9245,0 44.9186,-3.3012 62.9826,-9.8851 18.0639,-6.5839 33.1788,-15.1336 45.4009,-25.6121 12.1847,-10.5156 21.5876,-22.5893 28.1899,-36.2576 6.584,-13.6687 10.8495,-27.337 12.8154,-41.0055 l -54.1917,-13.1863 c -2.4482,23.4423 -11.8324,41.7474 -28.1901,54.915 -16.3576,13.1861 -37.7041,19.7703 -64.0768,19.7703 -10.2559,0 -20.1411,-1.0944 -29.6552,-3.2828 -9.514,-2.2069 -17.9341,-5.4896 -25.2598,-9.8852 -7.3256,-4.3953 -13.1863,-9.885 -17.563,-16.4873 -4.4141,-6.5839 -6.6026,-14.2619 -6.6026,-23.0529 z m 360.2582,93.7135 h 114.2253 v 149.3889 h 57.1222 v -149.3889 h 140.5978 v -52.708 h -140.5978 v -235.795 c 0,-14.6331 6.6023,-21.9588 19.7699,-21.9588 h 103.2463 v -52.7265 h -123.7396 c -16.5988,0 -30.1559,5.3598 -40.6345,16.1165 -10.5157,10.7382 -15.7643,24.4067 -15.7643,41.0056 v 253.3582 h -114.2253 z m 573.3526,108.3834 c 0,14.1506 4.989,26.2243 15.004,36.2391 10.0148,10.0149 22.0884,15.0223 36.2575,15.0223 14.1507,0 26.2243,-5.0074 36.2391,-15.0223 9.9964,-10.0148 15.0038,-22.0885 15.0038,-36.2391 0,-14.1692 -5.0074,-26.2427 -15.0038,-36.2575 -10.0148,-9.9965 -22.0884,-15.004 -36.2391,-15.004 -14.1691,0 -26.2427,5.0075 -36.2575,15.004 -10.015,10.0148 -15.004,22.0883 -15.004,36.2575 z m -103.9879,-418.8452 h 127.4303 v 257.7538 h -114.2439 v 52.708 h 171.3473 v -310.4618 h 118.6208 v -52.7265 h -303.1545 z m 702.953,8.7908 h -8.7724 c -11.7212,-24.4066 -27.949,-42.4705 -48.7021,-54.1915 -20.753,-11.7212 -42.6004,-17.5632 -65.542,-17.5632 -23.9244,0 -46.1241,4.0057 -66.6361,12.0736 -20.4933,8.0488 -38.4275,20.0111 -53.8023,35.8865 -15.3931,15.857 -27.4665,35.2563 -36.2574,58.1976 -8.791,22.9417 -13.1863,49.5553 -13.1863,79.8225 v 11.7212 c 0,29.7663 4.3953,56.1206 13.1863,79.0806 8.7909,22.9415 20.8643,42.3406 36.2574,58.2162 15.3748,15.8569 33.309,27.9304 53.8023,36.239 20.512,8.3087 42.2295,12.4445 65.1711,12.4445 24.8888,0 47.4781,-5.4896 67.7304,-16.469 20.2709,-10.9792 36.2575,-27.949 47.9787,-50.8905 h 8.7724 v 57.1035 h 57.1219 v -288.503 c 0,-14.6331 6.5837,-21.9588 19.7702,-21.9588 h 18.305 v -52.7265 h -38.7985 c -16.5988,0 -30.156,5.3598 -40.653,16.1165 -10.497,10.7382 -15.7456,24.4067 -15.7456,41.0056 z M 3214.562,2536.368 c 17.081,0 32.8268,3.1714 47.2369,9.5141 14.3918,6.3614 26.7251,15.3933 36.9626,27.096 10.2559,11.721 18.3235,25.7605 24.184,42.0995 5.842,16.3578 8.7724,34.5515 8.7724,54.5625 v 8.791 c 0,19.5105 -2.9304,37.4632 -8.7724,53.8209 -5.8605,16.3576 -14.0395,30.3784 -24.5365,42.0996 -10.497,11.7025 -22.9415,20.8643 -37.3518,27.4482 -14.3918,6.6023 -29.8963,9.8851 -46.4952,9.8851 -17.081,0 -32.6966,-3.1715 -46.866,-9.5143 -14.1506,-6.3427 -26.4653,-15.2447 -36.9808,-26.7248 -10.4972,-11.4802 -18.6575,-25.3895 -24.5367,-41.7472 -5.842,-16.3391 -8.7721,-34.2732 -8.7721,-53.8023 v -11.7212 c 0,-41.4876 10.8679,-73.832 32.5854,-97.0145 21.7175,-23.2013 49.9076,-34.7926 84.5702,-34.7926 z m 281.196,319.2526 h 131.7885 v -48.3311 h 8.791 c 9.273,20.0299 22.4593,34.7925 39.5404,44.3066 17.0809,9.514 36.6099,14.2805 58.5685,14.2805 36.6286,0 66.154,-11.9623 88.6133,-35.8682 22.4593,-23.9244 34.403,-58.8283 35.8682,-104.7113 l -60.0339,-8.7908 c 0,33.6798 -8.0673,57.9566 -24.1655,72.8491 -16.1165,14.8925 -35.8867,22.3295 -59.3105,22.3295 -15.1335,0 -28.19,-2.9118 -39.1692,-8.7723 -10.9979,-5.8606 -20.1411,-13.9095 -27.4668,-24.1656 -7.3257,-10.2559 -12.6856,-22.2184 -16.1166,-35.8866 -3.4125,-13.6686 -5.1189,-28.32 -5.1189,-43.9358 v -153.7658 h 92.267 v -52.7265 h -232.8647 v 52.7265 h 83.4759 v 257.7538 h -74.6667 z m 732.2372,-297.2755 h -8.7907 c -11.7213,-23.4422 -27.096,-41.9883 -46.143,-55.657 -19.0281,-13.6683 -43.1936,-20.4932 -72.478,-20.4932 -20.0298,0 -38.446,3.2826 -55.2858,9.8849 -16.84,6.584 -31.2502,16.469 -43.2125,29.6368 -11.9438,13.1863 -21.2354,29.544 -27.8192,49.0729 -6.5838,19.5291 -9.8851,42.2296 -9.8851,68.1014 v 216.7297 h 57.122 v -209.4225 c 0,-38.0752 7.808,-65.8943 23.4238,-83.4761 15.6158,-17.5632 39.5403,-26.354 71.755,-26.354 34.6626,0 61.8696,11.8324 81.6397,35.5158 19.7701,23.6833 29.6738,55.2858 29.6738,94.8263 v 188.9105 h 57.1036 v -452.525 c 0,-16.5986 -5.2486,-30.2486 -15.7458,-41.0055 -10.497,-10.738 -24.0357,-16.0977 -40.6345,-16.0977 h -207.2156 v 52.7262 h 186.7036 c 13.1864,0 19.7887,7.3074 19.7887,21.9587 z m 610.6861,-8.7907 h 43.9171 v 398.3332 h -43.9171 v 57.1219 h 207.2155 c 24.4067,0 46.0131,-3.4125 64.8002,-10.2561 18.8057,-6.8434 34.6625,-16.1166 47.6079,-27.8191 12.9266,-11.721 22.6816,-25.7605 29.2841,-42.1182 6.5839,-16.3391 9.885,-34.0322 9.885,-53.079 v -8.7908 c 0,-14.1507 -2.2068,-27.0959 -6.5836,-38.7984 -4.3956,-11.7211 -10.5159,-22.2183 -18.305,-31.4913 -7.8266,-9.273 -16.9699,-17.2108 -27.4669,-23.7946 -10.497,-6.6025 -21.8472,-11.61 -34.0507,-15.0224 v -8.7722 c 24.4067,-6.8436 44.9186,-19.9 61.5176,-39.1881 16.5988,-19.2692 24.8886,-42.8229 24.8886,-70.6605 v -8.7909 c 0,-19.0284 -3.3011,-36.7213 -9.885,-53.0789 -6.6025,-16.3577 -16.3575,-30.5084 -29.2841,-42.4706 -12.9454,-11.9623 -28.8022,-21.3466 -47.6079,-28.1903 -18.7871,-6.8433 -40.3935,-10.2558 -64.8002,-10.2558 h -207.2155 z m 105.4346,0 h 97.3856 c 28.802,0 52.2259,7.1959 70.2895,21.6062 18.064,14.3917 27.096,34.2915 27.096,59.6812 v 4.377 c 0,26.3725 -8.5312,47.2368 -25.6121,62.6116 -17.0995,15.3746 -40.2821,23.0712 -69.5665,23.0712 h -99.5925 z m 0,228.4507 h 99.5925 c 29.2844,0 52.467,7.5669 69.5665,22.7005 17.0809,15.1335 25.6121,35.8868 25.6121,62.2407 v 4.3955 c 0,24.8888 -9.032,44.5477 -27.096,58.9395 -18.0636,14.4103 -41.4875,21.6063 -70.2895,21.6063 h -97.3856 z m 623.8723,77.6155 h 57.1033 v -363.1883 h -57.1033 v 65.9128 h -8.7908 c -11.7211,-23.4422 -27.0959,-41.9883 -46.1242,-55.657 -19.0469,-13.6683 -43.2125,-20.4932 -72.4967,-20.4932 -20.0113,0 -38.4461,3.2826 -55.286,9.8849 -16.8397,6.584 -31.2501,16.469 -43.2125,29.6368 -11.9435,13.1863 -21.2166,29.544 -27.8191,49.0729 -6.5839,19.5291 -9.885,42.2296 -9.885,68.1014 v 216.7297 h 57.1221 v -209.4225 c 0,-38.0752 7.8078,-65.8943 23.4237,-83.4761 15.6343,-17.5632 39.5587,-26.354 71.7548,-26.354 34.6627,0 61.8884,11.8324 81.6584,35.5158 19.7701,23.6833 29.6553,55.2858 29.6553,94.8263 z m 301.671,108.3834 c 0,14.1506 5.0072,26.2243 15.0222,36.2391 10.0149,10.0149 22.0885,15.0223 36.2393,15.0223 14.169,0 26.2425,-5.0074 36.2575,-15.0223 9.9963,-10.0148 15.0038,-22.0885 15.0038,-36.2391 0,-14.1692 -5.0075,-26.2427 -15.0038,-36.2575 -10.015,-9.9965 -22.0885,-15.004 -36.2575,-15.004 -14.1508,0 -26.2244,5.0075 -36.2393,15.004 -10.015,10.0148 -15.0222,22.0883 -15.0222,36.2575 z m -103.9695,-418.8452 h 127.4116 v 257.7538 h -114.2254 v 52.708 h 171.3475 v -310.4618 h 118.6208 v -52.7265 h -303.1545 z m 439.3571,0 h 131.7886 v 407.1241 h -127.4117 v 52.7266 h 184.5337 v -459.8507 h 131.7885 v -52.7265 h -320.6991 z m 729.3069,2.9303 h -8.7908 c -5.8607,-11.239 -13.3162,-20.9941 -22.3296,-29.2843 -9.0504,-8.3085 -18.8056,-15.1335 -29.3029,-20.5119 -10.4969,-5.3598 -21.6061,-9.4029 -33.3087,-12.0923 -11.721,-2.6705 -22.9415,-4.0057 -33.6983,-4.0057 -24.3882,0 -47.0885,4.1357 -68.0826,12.4444 -20.9943,8.29 -39.4106,20.2523 -55.2861,35.8866 -15.8568,15.6159 -28.3199,35.0152 -37.3518,58.1977 -9.0319,23.2012 -13.5385,49.6664 -13.5385,79.4515 v 11.7212 c 0,29.2843 4.6363,55.5268 13.9094,78.7097 9.273,23.1826 21.7175,42.7115 37.352,58.5871 15.6156,15.8569 33.9207,27.9304 54.915,36.239 20.9941,8.3087 43.1937,12.4445 66.636,12.4445 24.8889,0 48.2014,-5.4896 69.9189,-16.469 21.7175,-10.9792 38.446,-27.949 50.1672,-50.8905 h 8.7908 v 206.4924 h 57.1035 v -512.5772 h -57.1035 z M 6812.784,2536.368 c 17.0994,0 32.9564,3.1714 47.6078,9.5141 14.6515,6.3614 27.4484,15.3933 38.4276,27.096 10.9978,11.721 19.6589,25.7605 26.0016,42.0995 6.3428,16.3578 9.5327,34.5515 9.5327,54.5625 v 8.791 c 0,19.5105 -3.1899,37.4632 -9.5327,53.8209 -6.3427,16.3576 -15.0038,30.3784 -26.0016,42.0996 -10.9792,11.7025 -23.906,20.8643 -38.7984,27.4482 -14.8926,6.6023 -30.6382,9.8851 -47.237,9.8851 -17.081,0 -33.0677,-3.1715 -47.9602,-9.5143 -14.8925,-6.3427 -27.8191,-15.3745 -38.7983,-27.0958 -10.9793,-11.7025 -19.5292,-25.6122 -25.6308,-41.7287 -6.1018,-16.1165 -9.1434,-33.9207 -9.1434,-53.4498 v -11.7212 c 0,-20.512 3.0416,-38.817 9.1434,-54.915 6.1016,-16.1165 14.6515,-29.915 25.6308,-41.3763 10.9792,-11.48 23.7947,-20.2523 38.4459,-26.3539 14.6329,-6.1019 30.7494,-9.1619 48.3126,-9.1619 z m 330.2503,120.086 c 1.4652,-36.1094 12.6856,-65.1709 33.6799,-87.1295 20.994,-21.9772 50.2785,-32.9565 87.8715,-32.9565 17.0808,0 31.9733,1.9474 44.6588,5.8606 12.7042,3.9132 23.5537,9.273 32.6042,16.1165 9.0133,6.8249 16.3391,14.7628 21.9585,23.7948 5.6195,9.0319 10.1262,18.6759 13.5387,28.9317 l 54.1916,-14.6515 c -10.2558,-33.6981 -29.173,-61.1463 -56.751,-82.3817 -27.578,-21.2353 -64.8,-31.8435 -111.6661,-31.8435 -25.8717,0 -49.6664,4.5067 -71.4025,13.5385 -21.7174,9.032 -40.3934,21.8474 -56.0092,38.4461 -15.6158,16.5986 -27.8192,36.3689 -36.61,59.3106 -8.7908,22.9414 -13.1863,48.331 -13.1863,76.15 v 17.5819 c 0,25.3711 4.5254,49.0544 13.5388,71.013 9.0505,21.9771 21.6062,40.8941 37.7226,56.7511 16.1166,15.857 35.0336,28.3198 56.7511,37.3518 21.7174,9.032 45.271,13.5387 70.6608,13.5387 29.7663,0 55.527,-5.4896 77.263,-16.469 21.7175,-10.9792 39.5217,-24.5365 53.4498,-40.6345 13.9097,-16.1165 24.1655,-33.6983 30.7494,-52.7265 6.5839,-19.047 9.8853,-36.61 9.8853,-52.7266 v -46.866 z m 121.5514,155.2309 c -16.0982,0 -31.1205,-2.5593 -45.03,-7.678 -13.9095,-5.1374 -26.1129,-12.3333 -36.61,-21.6063 -10.497,-9.273 -19.0469,-20.1411 -25.6308,-32.5856 -6.5837,-12.4442 -10.8681,-25.983 -12.8154,-40.6344 h 234.3115 c -0.9643,15.6159 -4.7477,29.7849 -11.3502,42.4705 -6.5838,12.6855 -15.1336,23.4237 -25.6121,32.2145 -10.4973,8.791 -22.4593,15.616 -35.8868,20.512 -13.4274,4.8778 -27.2256,7.3073 -41.3762,7.3073 z m 264.3375,43.9357 h 131.8071 v -48.3311 h 8.7909 c 9.273,20.0299 22.4592,34.7925 39.5403,44.3066 17.0809,9.514 36.61,14.2805 58.5687,14.2805 36.61,0 66.1538,-11.9623 88.6131,-35.8682 22.4409,-23.9244 34.403,-58.8283 35.8681,-104.7113 l -60.0522,-8.7908 c 0,33.6798 -8.049,57.9566 -24.147,72.8491 -16.1165,14.8925 -35.8868,22.3295 -59.3105,22.3295 -15.1337,0 -28.19,-2.9118 -39.1694,-8.7723 -10.9978,-5.8606 -20.141,-13.9095 -27.4668,-24.1656 -7.3256,-10.2559 -12.6853,-22.2184 -16.1165,-35.8866 -3.4125,-13.6686 -5.1187,-28.32 -5.1187,-43.9358 v -153.7658 h 92.2669 v -52.7265 h -232.8648 v 52.7265 h 83.4758 v 257.7538 h -74.685 v 52.708"
       style="fill:#324661;fill-opacity:1;fill-rule:nonzero;stroke:none;stroke-width:1.85461"
       id="path850"
       transform="matrix(0.03527778,0,0,-0.03527778,-28.416168,216.37187)" />
  </g>
  <g
     id="layer1">
    <g
       id="g848"
       transform="matrix(0.03527778,0,0,-0.03527778,-28.416169,216.37187)">
      <text
         xml:space="preserve"
         style="font-style:normal;font-weight:normal;font-size:300px;line-height:1.25;font-family:sans-serif;fill:#000000;fill-opacity:1;stroke:none;stroke-width:7.5"
         x="2772.0601"
         y="-1417.9"
         id="text5227"
         transform="scale(1,-1)"><tspan
           id="tspan5225"
           style="stroke-width:7.5"
           x="2772.0601"
           y="-1417.9" /></text>
    </g>
    <g
       id="layer3">
      <path
         d="m 77.5294,111.20335 c -0.336486,0.20785 -1.916007,1.3974 -2.027721,1.31886 -7.364772,-6.88882 -26.534312,-12.908329 -36.387185,-12.908329 -6.638999,0 -13.499384,1.044659 -19.918342,2.926139 V 28.134667 C 25.61511,26.044663 32.475495,25 39.114494,25 52.663973,25 65.603443,29.207764 74.838189,36.525149 84.525189,29.207764 97.535073,25 110.75078,25 c 6.9071,0 13.59145,1.044663 20.05307,3.134667 V 102.53934 C 109.84084,96.640349 96.111272,99.715439 77.5294,111.20335 Z M 72.144949,58.709521 c -0.211236,0.394035 -0.759633,0.396067 -1.207153,0.414344 -0.337163,0.01286 -0.67365,0.06567 -0.998625,0.15572 -0.524023,0.14556 -1.041954,0.391326 -1.583581,0.346643 -1.053469,-0.08599 -1.868615,-1.236267 -2.916665,-1.102215 1.095443,-0.362889 2.266033,-0.690574 3.389232,-0.427885 0.566678,0.132701 1.089346,0.409607 1.643161,0.586991 0.554493,0.176706 1.185489,0.246436 1.699356,-0.02641 z m 9.037726,-3.852323 c 0.557876,0.550432 0.601204,1.62759 0.07854,2.278895 -0.643862,0.802287 -1.795495,1.019616 -2.815784,0.883532 -1.019616,-0.135407 -1.976262,-0.558553 -2.972859,-0.813795 -0.8815,-0.225453 -1.796168,-0.318883 -2.705425,-0.275555 -0.39945,0.01896 -0.811085,0.06229 -1.189552,-0.06635 -1.333081,-0.452938 -1.23897,-2.475914 -2.287697,-3.414959 -0.78739,-0.704794 -2.014852,-0.605268 -3.000612,-0.225453 -0.985763,0.379137 -1.886218,0.992533 -2.918019,1.217983 -1.864551,0.408252 -3.785973,-0.541627 -5.19285,-1.830699 -3.495524,-3.203046 -4.59503,-8.74322 -2.586271,-13.038999 -3.291738,1.633009 -4.665437,5.89629 -3.811697,9.470352 0.853736,3.573385 3.484012,6.483954 6.444686,8.659266 -3.570679,-1.746751 -7.20229,-3.72098 -9.57597,-6.909809 -2.37368,-3.18951 -3.12722,-7.92062 -0.729167,-11.091168 -2.031778,1.588318 -3.647857,3.911896 -3.754152,6.488014 -0.044,1.079193 0.174674,2.153645 0.477308,3.190184 2.06428,7.069589 8.375587,12.712665 15.630685,13.977367 -2.590334,3.096073 -3.732491,7.355974 -3.039209,11.33287 0.69396,3.976896 3.210497,7.597673 6.696545,9.634192 4.066946,2.376389 9.098658,2.513151 13.695042,1.337141 0,0 -5.789994,0.03385 -9.563104,-2.026359 -3.79342,-2.070372 -7.146767,-5.184726 -7.454819,-9.559721 -0.06567,-0.932953 0.332422,-2.088649 1.082576,-2.649234 0.343934,-0.257274 0.797546,-0.314142 1.227462,-0.310759 2.436643,0.01964 4.593001,1.668212 7.016101,1.924809 1.437344,0.152333 2.874011,-0.19431 4.310677,-0.356796 1.435989,-0.161812 2.995877,-0.108328 4.173915,0.728486 0.236287,0.167905 0.460382,0.368307 0.73932,0.44481 0.602562,0.16655 1.190227,-0.295186 1.598479,-0.767753 1.456302,-1.686493 0.523349,-3.335747 0.295864,-5.552356 -0.830044,2.088649 -1.563271,1.827992 -3.480633,1.647899 -1.405523,-0.132697 -12.115522,-3.183414 -13.466206,-3.351992 0.269462,-0.673651 9.637579,-0.390652 13.794568,-1.458334 0.781974,-0.201077 2.205101,-0.341902 2.838126,0.160457 0.507097,0.402834 0.383201,2.411596 0.383201,2.411596 0.654692,-0.322947 0.874053,-3.255857 0.874053,-3.255857 2.045317,-0.176706 2.889578,-2.496901 2.505026,-4.513107 -0.350026,-1.836117 -1.72847,-3.303253 -3.318144,-4.318801 z m 16.713258,-8.745923 c -1.968137,1.050079 -3.698635,2.747402 -4.276821,4.902402 -0.339873,1.265375 -0.266075,2.606579 -0.06703,3.901069 0.57006,3.706764 2.126565,7.179269 3.158363,10.784474 0.729841,2.549709 1.22543,5.574697 0.6073,8.193466 -0.635734,2.689179 -1.848302,5.482622 -3.586251,7.605797 -2.050055,2.50503 -4.737206,4.764289 -7.491381,6.471769 -7.38576,4.577426 -11.804764,5.308625 -18.905493,4.286303 -4.846885,-0.698024 -8.682282,-2.888904 -11.766174,-6.614622 -2.769743,-3.347255 -4.889539,-7.332956 -5.496836,-11.634827 -0.570741,-4.043928 0.306018,-8.374236 2.780577,-11.602333 -1.250484,-0.733228 -2.203742,-1.509109 -2.9302,-2.263327 -6.959911,5.870565 -7.076359,14.84194 -5.758177,18.588649 -0.430594,-1.50911 1.810389,-3.728428 3.257889,-4.332344 0,0 -1.215955,4.817099 0.387939,9.307188 1.015552,2.838803 2.597104,6.368179 6.343809,8.542137 -0.688544,-1.25319 -0.74609,-4.676274 -0.155042,-5.978885 2.187497,5.114989 6.752738,9.154175 12.095213,10.701197 -0.725781,-0.907902 -1.235587,-1.987095 -1.475935,-3.125188 2.479975,0.97222 4.95995,1.943763 7.439929,2.915306 1.620816,0.635057 3.305278,1.280951 5.043227,1.184808 -0.531474,-0.853059 -1.062948,-1.705448 -1.594418,-2.557829 2.87401,1.00336 7.239526,1.030442 10.163634,0.183476 2.923431,-0.84697 6.119033,-2.329 8.803475,-3.76499 -1.02706,-0.53553 -3.715565,-1.278237 -4.741948,-1.813771 7.188747,-0.567355 13.743108,-5.980244 15.659798,-12.931349 -2.06157,1.244388 -4.12246,2.488777 -6.184031,3.733839 0,0 3.087271,-5.88613 2.715581,-12.146662 -0.28977,-4.891571 -1.88892,-8.694474 -3.213202,-13.412048 -1.932252,-6.881368 1.946472,-8.616608 5.541522,-11.14939 -2.17802,0.481369 -4.387177,0.974926 -6.355317,2.025685 z m -2.066308,-3.426471 c -2.936293,1.266053 -5.182016,3.583542 -6.433175,6.532701 -1.452915,3.423084 -0.922118,6.581447 0.100877,10.042448 1.039248,3.515159 2.515856,7.030992 2.584242,10.748589 0.06973,3.846227 -1.524007,8.043838 -4.113661,10.83593 -6.341099,6.837363 -17.933953,9.816314 -25.616935,3.999237 C 51.888092,76.921735 56.349747,66.70597 57.549449,64.403376 56.185225,63.988357 55.00651,63.518492 53.990284,63.016811 c -0.923477,1.915333 -1.64181,3.964711 -1.989804,6.054714 -0.679066,4.07033 0.14624,8.155553 2.142133,11.754663 0.786039,1.418389 1.786693,2.674962 2.865209,3.879405 2.287019,2.55445 5.177279,4.463684 8.446675,5.506996 5.686411,1.814449 12.005166,0.817181 17.292804,-1.777214 5.272064,-2.586947 10.08916,-7.177913 11.730966,-12.955045 0.824626,-2.905153 0.755569,-5.848219 0.03927,-8.761497 -0.844941,-3.436624 -2.481329,-6.647117 -3.099463,-10.145354 -0.986438,-5.582144 1.425836,-10.637559 6.645088,-13.009884 2.640428,-1.200383 5.548968,-1.664148 8.426368,-2.034487 -3.56662,-0.841555 -7.268639,-0.307372 -10.659903,1.155696 z m 19.693565,8.224609 1.37844,4.487383 4.48738,1.378441 -4.48738,1.37844 -1.37844,4.487383 -1.37844,-4.487383 -4.48806,-1.37844 4.48806,-1.378441 z m -4.54019,9.079703 0.31211,1.014198 1.0142,0.312113 -1.0142,0.311432 -0.31211,1.014201 -0.31143,-1.014201 -1.01488,-0.311432 1.01488,-0.312113 z m -78.367357,-1.785341 -0.955294,3.108943 -3.10962,0.955294 3.10962,0.955297 0.955294,3.109617 0.955294,-3.109617 3.108939,-0.955297 -3.108939,-0.955294 z m 4.539513,7.27812 -0.311439,1.014871 -1.014868,0.311436 1.014868,0.311436 0.311439,1.014874 0.312113,-1.014874 1.014197,-0.311436 -1.014197,-0.311436 -0.312113,-1.014871"
         style="fill:#ff4500;fill-opacity:1;fill-rule:evenodd;stroke:none;stroke-width:0.0677034"
         id="path852" />
    </g>
    <g
       id="layer4">
      <path
         d="m 74.791474,117.58846 c -1.542962,0 -16.340216,-13.79389 -36.785288,-13.79389 -6.897621,0 -13.585363,1.25386 -20.272429,3.55239 -0.627609,0.20921 -1.254545,0.20921 -1.881477,-0.2092 -0.626935,-0.41773 -0.835459,-1.04466 -0.835459,-1.67159 V 37.958432 H 14.807617 C 13.134667,38.37616 11.672273,38.794565 10,39.420823 v 73.986947 c 6.896947,-2.29921 14.212299,-3.34387 22.153903,-3.34387 16.511507,0 32.234944,5.20774 43.103368,15.03015 11.076955,-9.82241 25.868109,-15.03015 42.588149,-15.03015 7.94364,0 15.25696,1.04466 22.15458,3.34387 V 39.420823 c -1.67227,-0.626258 -3.13535,-1.044663 -4.80762,-1.462391 h -0.20785 v 67.507738 c 0,0.62693 -0.41976,1.25386 -0.83681,1.67159 -0.62761,0.41773 -1.25319,0.41773 -1.8808,0.2092 -6.47786,-2.29853 -13.37616,-3.55239 -20.27379,-3.55239 -20.83707,0 -35.166495,13.79389 -36.783925,13.79389 h -0.20853 -0.209201"
         style="fill:#324661;fill-opacity:1;fill-rule:evenodd;stroke:none;stroke-width:0.0677034"
         id="path854" />
    </g>
  </g>
</svg>
