<?xml version="1.0" encoding="UTF-8" standalone="no"?>
<!-- Created with Inkscape (http://www.inkscape.org/) -->

<svg
   width="400"
   height="400"
   viewBox="0 0 105.83333 105.83333"
   version="1.1"
   id="svg5"
   inkscape:version="1.1.2 (0a00cf5339, 2022-02-04)"
   sodipodi:docname="Bestiary-Builder-Logo-Inkscape.svg"
   xmlns:inkscape="http://www.inkscape.org/namespaces/inkscape"
   xmlns:sodipodi="http://sodipodi.sourceforge.net/DTD/sodipodi-0.dtd"
   xmlns="http://www.w3.org/2000/svg"
   xmlns:svg="http://www.w3.org/2000/svg">
  <sodipodi:namedview
     id="namedview7"
     pagecolor="#505050"
     bordercolor="#ffffff"
     borderopacity="1"
     inkscape:pageshadow="0"
     inkscape:pageopacity="0"
     inkscape:pagecheckerboard="true"
     inkscape:document-units="px"
     showgrid="false"
     units="px"
     inkscape:zoom="2"
     inkscape:cx="219.75"
     inkscape:cy="170.25"
     inkscape:window-width="2560"
     inkscape:window-height="1368"
     inkscape:window-x="1080"
     inkscape:window-y="1440"
     inkscape:window-maximized="1"
     inkscape:current-layer="layer1" />
  <defs
     id="defs2" />
  <g
     inkscape:groupmode="layer"
     id="layer2"
     inkscape:label="Book"
     style="display:inline">
    <g
       id="svgg"
       transform="matrix(0.29405744,0,0,0.29405744,-47.468022,-37.7938)"
       style="fill:#1a1a1a">
      <path
         id="path0"
         d="m 260.17132,151.54322 c -0.358,0.04 -1.485,0.163 -2.506,0.273 -6.716,0.721 -11.176,1.96 -20.325,5.648 -26.644,10.741 -51.643,16.772 -71.694,17.298 l -4.222,0.111 v 149.50223 140.50556 h 0.417 c 0.736,-10e-4 6.972,-0.74 11.091,-1.315 22.332,-3.119 46.001,-9.015 64.408,-16.045 8.27,-3.159 2.8433,-5.03906 19.49,-4.908 16.6467,0.13106 47.51924,6.073 74.55324,20.699 1.596,0.863 2.953,1.569 3.017,1.569 0.063,0 -1.25953,-79.08594 0.115,-140.52056 V 174.84322 l -2.552,-1.558 c -18.878,-11.52 -37.01824,-19.07 -56.01524,-21.405 -2.368,-0.291 -14,-0.54 -15.777,-0.337 m 150.162,-0.002 c -0.357,0.04 -1.568,0.16 -2.691,0.266 -18.298,1.738 -38.84926,10.19 -58.51526,22.375 l -0.876,0.543 -0.006,149.59223 c -0.003,61.491 0.058,140.56656 0.136,140.53256 0.078,-0.034 1.505,-0.802 3.171,-1.707 24.639,-13.38 48.68326,-21.033 69.17626,-20.665 9.476,0.17 13.891,1.05 23.666,4.716 18.052,6.771 37.183,11.82 57.447,15.161 7.002,1.155 18.60094,4.1671 19.025,2.526 h 0.465 V 324.37645 174.87422 l -4.408,-0.116 c -19.881,-0.52 -45.9,-6.794 -71.509,-17.241 -8.714,-3.555 -12.492,-4.638 -19.675,-5.64 -2.02,-0.282 -13.62,-0.535 -15.406,-0.336"
         stroke="none"
         fill="#040404"
         fill-rule="evenodd"
         sodipodi:nodetypes="ccccccccccccsscccccccccsccccsccccccc"
         style="fill:#1a1a1a" />
      <path
         id="path1"
         d=""
         stroke="none"
         fill="#080404"
         fill-rule="evenodd"
         style="fill:#1a1a1a" />
      <path
         id="path2"
         d=""
         stroke="none"
         fill="#080404"
         fill-rule="evenodd"
         style="fill:#1a1a1a" />
      <path
         id="path3"
         d=""
         stroke="none"
         fill="#080404"
         fill-rule="evenodd"
         style="fill:#1a1a1a" />
      <path
         id="path4"
         d=""
         stroke="none"
         fill="#080404"
         fill-rule="evenodd"
         style="fill:#1a1a1a" />
    </g>
  </g>
  <g
     inkscape:label="Dragon"
     inkscape:groupmode="layer"
     id="layer1"
     style="display:inline">
    <path
       class="st0"
       d="m 39.669578,20.275848 c 6.376767,-3.705872 9.481689,-9.848942 13.179213,-16.9685564 1.886325,2.0365625 2.904602,7.0444964 2.487275,14.0472574 17.769809,-1.160172 23.2142,5.953054 37.344946,-9.0707495 -6.07632,23.4621715 -22.19595,13.0103235 -31.360453,15.0552315 14.14739,1.602537 15.556405,5.869537 31.848893,3.098484 -5.60888,6.752361 -15.41454,8.928905 -25.86442,4.171368 1.84459,5.074706 21.23105,6.217825 17.383284,21.366826 -3.639088,-6.251575 -7.559374,-7.953908 -10.764451,-9.614873 6.602113,11.418091 6.084633,21.826249 -0.07509,33.202607 -1.360517,2.503967 -3.021479,4.782577 -5.049669,6.752365 2.821131,-6.234876 4.189947,-12.044081 2.988042,-17.093749 -1.143449,4.340208 -22.518997,46.540401 -11.109255,11.968965 -22.78611,22.385464 -28.328842,9.77703 -48.110185,25.335016 6.602126,-30.940693 25.91668,-29.007502 39.154322,-43.346892 2.720979,-2.95468 3.705872,-6.952682 2.537353,-9.832241 -3.405394,-8.379945 -15.332628,-5.917711 -19.656144,-0.80127 -9.761922,10.558217 -9.764987,2.782192 -16.242405,-2.462242 -1.950165,-1.77999 -5.092878,-4.920155 -3.563964,-7.561983 2.45197,-2.52957 6.2648,-3.018616 8.463409,-4.45706 6.328396,-3.960227 10.747675,-10.403512 16.409295,-13.788504 z"
       id="path11"
       style="fill:#ff820d;fill-opacity:1;stroke-width:0.834655"
       sodipodi:nodetypes="ccccccccccccccccccccc" />
  </g>
  <style
     type="text/css"
     id="style9">.st0{fill-rule:evenodd;clip-rule:evenodd;}</style>
</svg>
