<?xml version="1.0" encoding="UTF-8" standalone="no"?>
<!-- Created with Inkscape (http://www.inkscape.org/) -->

<svg
   width="400"
   height="400"
   viewBox="0 0 105.83333 105.83333"
   version="1.1"
   id="svg5"
   xmlns="http://www.w3.org/2000/svg"
   xmlns:svg="http://www.w3.org/2000/svg">
  <defs
     id="defs2" />
  <g
     id="layer2"
     style="display:none">
    <g
       id="svgg"
       transform="matrix(0.29405744,0,0,0.29405744,-47.468022,-37.7938)"
       style="fill:#1a1a1a">
      <path
         id="path0"
         d="m 260.17132,151.54322 c -0.358,0.04 -1.485,0.163 -2.506,0.273 -6.716,0.721 -11.176,1.96 -20.325,5.648 -26.644,10.741 -51.643,16.772 -71.694,17.298 l -4.222,0.111 v 149.50223 140.50556 h 0.417 c 0.736,-10e-4 6.972,-0.74 11.091,-1.315 22.332,-3.119 46.001,-9.015 64.408,-16.045 8.27,-3.159 2.8433,-5.03906 19.49,-4.908 16.6467,0.13106 47.51924,6.073 74.55324,20.699 1.596,0.863 2.953,1.569 3.017,1.569 0.063,0 -1.25953,-79.08594 0.115,-140.52056 V 174.84322 l -2.552,-1.558 c -18.878,-11.52 -37.01824,-19.07 -56.01524,-21.405 -2.368,-0.291 -14,-0.54 -15.777,-0.337 m 150.162,-0.002 c -0.357,0.04 -1.568,0.16 -2.691,0.266 -18.298,1.738 -38.84926,10.19 -58.51526,22.375 l -0.876,0.543 -0.006,149.59223 c -0.003,61.491 0.058,140.56656 0.136,140.53256 0.078,-0.034 1.505,-0.802 3.171,-1.707 24.639,-13.38 48.68326,-21.033 69.17626,-20.665 9.476,0.17 13.891,1.05 23.666,4.716 18.052,6.771 37.183,11.82 57.447,15.161 7.002,1.155 18.60094,4.1671 19.025,2.526 h 0.465 V 324.37645 174.87422 l -4.408,-0.116 c -19.881,-0.52 -45.9,-6.794 -71.509,-17.241 -8.714,-3.555 -12.492,-4.638 -19.675,-5.64 -2.02,-0.282 -13.62,-0.535 -15.406,-0.336"
         stroke="none"
         fill="#040404"
         fill-rule="evenodd"
         style="fill:#1a1a1a" />
      <path
         id="path1"
         d=""
         stroke="none"
         fill="#080404"
         fill-rule="evenodd"
         style="fill:#1a1a1a" />
      <path
         id="path2"
         d=""
         stroke="none"
         fill="#080404"
         fill-rule="evenodd"
         style="fill:#1a1a1a" />
      <path
         id="path3"
         d=""
         stroke="none"
         fill="#080404"
         fill-rule="evenodd"
         style="fill:#1a1a1a" />
      <path
         id="path4"
         d=""
         stroke="none"
         fill="#080404"
         fill-rule="evenodd"
         style="fill:#1a1a1a" />
    </g>
  </g>
  <g
     id="layer3"
     style="display:inline">
    <path
       fill-rule="evenodd"
       clip-rule="evenodd"
       d="m 1.9177202,27.742151 c 0.9979777,-2.309896 2.361371,-4.364737 4.1179015,-6.140406 2.6402782,-2.669043 5.6638763,-4.019687 9.0591423,-4.064559 l 29.521659,-0.173182 0.0305,3.085906 11.251502,-0.0207 -0.115507,-18.8776367 -11.212125,0.06074 -0.02109,3.437541 -29.360065,0.170651 C 11.16112,5.2566653 8.001504,6.4453413 5.6964032,8.7755533 1.8223888,12.691788 0.56534385,19.003677 1.9177172,27.742153 Z M 21.944612,100.67363 39.024603,99.181409 C 38.282449,71.132283 37.268647,48.9849 36.510495,20.935253 l -13.580526,0.07357 C 22.515502,49.06482 21.944612,72.613467 21.944612,100.67362 Z"
       id="path16-3"
       style="display:inline;fill:#000000;fill-opacity:1;stroke-width:1.32291663;stroke-miterlimit:4;stroke-dasharray:none;stroke:#ff4500;stroke-opacity:1" />
  </g>
  <g
     id="layer1"
     style="display:inline">
    <path
       class="st0"
       d="m 53.219729,32.454039 c 6.738844,-2.381508 10.800667,-7.672433 15.602476,-13.786625 1.429782,2.278642 1.498386,7.230508 -0.158928,13.823596 17.129513,2.09238 21.033973,9.845286 37.192613,-1.918306 -10.00727,21.24792 -23.476231,8.395235 -32.570776,8.693575 13.18311,4.071346 13.75709,8.387979 29.769686,8.680646 -6.555756,5.420596 -16.284508,5.728926 -25.379129,-0.681427 0.843423,5.164116 19.09794,9.740602 12.708432,23.473507 -2.340441,-6.607618 -5.767136,-8.933947 -8.520238,-11.092204 4.232341,12.060383 1.866966,21.878141 -6.045267,31.602693 -1.746023,2.139548 -3.737589,4.010449 -6.023274,5.521213 3.808108,-5.429404 6.156707,-10.714773 5.920757,-15.739416 C 73.846382,84.9584 45.899544,121.29645 62.984182,90.429624 37.259216,107.64589 34.249808,94.642629 12.614432,105.89825 24.467921,77.623713 42.511818,82.939585 57.696896,71.667021 60.81947,69.343069 62.476619,65.713289 61.882018,62.761076 60.14704,54.168826 48.346681,54.367485 43.309197,58.461584 32.114076,66.758985 33.510208,59.353943 28.285849,53.194677 26.749115,51.148863 24.321533,47.593301 26.25271,45.352778 c 2.789932,-1.967553 6.508577,-1.747234 8.86094,-2.721379 6.738547,-2.632414 12.105942,-7.972732 18.106075,-10.17736 z"
       id="path11"
       style="fill:#ff4500;fill-opacity:1;stroke-width:1.32291663;stroke:#000000;stroke-opacity:1;stroke-miterlimit:4;stroke-dasharray:none" />
  </g>
  <style
     type="text/css"
     id="style9">.st0{fill-rule:evenodd;clip-rule:evenodd;}</style>
</svg>
