<?xml version="1.0" encoding="UTF-8" standalone="no"?>
<!-- Created with Inkscape (http://www.inkscape.org/) -->

<svg
   width="400"
   height="400"
   viewBox="0 0 105.83333 105.83333"
   version="1.1"
   id="svg5"
   xmlns="http://www.w3.org/2000/svg"
   xmlns:svg="http://www.w3.org/2000/svg">
  <defs
     id="defs2">
    <mask
       maskUnits="userSpaceOnUse"
       id="mask12128">
      <rect
         style="fill:#ffffff;fill-opacity:1;fill-rule:evenodd;stroke:#ff4500;stroke-width:1.32292;stroke-miterlimit:4;stroke-dasharray:none;stroke-opacity:1"
         id="rect12130"
         width="126.67912"
         height="41.132244"
         x="-7.5641699"
         y="68.909973" />
    </mask>
    <clipPath
       clipPathUnits="userSpaceOnUse"
       id="clipPath29744">
      <rect
         style="fill:#000000;fill-opacity:1;fill-rule:evenodd;stroke:#ff4500;stroke-width:1.32292;stroke-miterlimit:4;stroke-dasharray:none;stroke-opacity:1"
         id="rect29746"
         width="55.596027"
         height="40.503193"
         x="1.2450577"
         y="69.520248" />
    </clipPath>
  </defs>
  <g
     id="g11692"
     style="display:inline">
    <path
       fill-rule="evenodd"
       clip-rule="evenodd"
       d="m 1.9177202,27.742151 c 0.9979777,-2.309896 2.361371,-4.364737 4.1179015,-6.140406 2.6402782,-2.669043 5.6638763,-4.019687 9.0591423,-4.064559 l 29.521659,-0.173182 0.0305,3.085906 11.251502,-0.0207 -0.115507,-18.8776367 -11.212125,0.06074 -0.02109,3.437541 -29.360065,0.170651 C 11.16112,5.2566653 8.001504,6.4453413 5.6964032,8.7755533 1.8223888,12.691788 0.56534385,19.003677 1.9177172,27.742153 Z M 21.944612,104.90696 39.024603,103.41474 C 38.282449,75.365616 37.268647,48.9849 36.510495,20.935253 l -13.580526,0.07357 C 22.515502,49.06482 21.944612,76.8468 21.944612,104.90695 Z"
       id="path11690"
       style="display:inline;fill:#000000;fill-opacity:1;stroke:none;stroke-width:1.32292;stroke-miterlimit:4;stroke-dasharray:none;stroke-opacity:1" />
  </g>
  <g
     id="layer1"
     style="display:inline">
    <path
       class="st0"
       d="m 54.057509,34.161553 c 6.632792,-2.344029 10.630692,-7.551688 15.356932,-13.569657 1.407281,2.242782 1.474805,7.116717 -0.156427,13.606047 16.859937,2.059451 20.70295,9.690345 36.607296,-1.888117 -9.849783,20.91353 -23.106776,8.263115 -32.058195,8.55676 12.97564,4.007273 13.540587,8.255973 29.301185,8.544034 -6.452585,5.335289 -16.02823,5.638767 -24.979725,-0.670703 0.83015,5.082845 18.797386,9.587309 12.508433,23.104092 -2.303608,-6.503631 -5.676375,-8.793349 -8.38615,-10.91764 4.165734,11.870582 1.837584,21.533833 -5.95013,31.105345 -1.718545,2.105876 -3.678769,3.947334 -5.928483,5.434322 3.748178,-5.343958 6.059816,-10.546149 5.827579,-15.491716 -1.840274,3.865306 -29.347298,39.63149 -12.53153,9.250426 C 38.348175,108.17007 35.386128,95.371449 14.091239,106.44994 25.758183,78.620369 43.518114,83.852582 58.464217,72.75742 c 3.073432,-2.287379 4.704502,-5.860035 4.119258,-8.765787 -1.707673,-8.45703 -13.322324,-8.261497 -18.280531,-4.231829 -11.018937,8.166821 -9.644777,0.878316 -14.786917,-5.184019 -1.51255,-2.013618 -3.901928,-5.513224 -2.001143,-7.718487 2.746026,-1.936588 6.406148,-1.719737 8.721491,-2.678551 6.632499,-2.590986 11.915425,-7.847261 17.82113,-10.017194 z"
       id="path11"
       style="fill:#ff4500;fill-opacity:1;stroke:none;stroke-width:1.3021;stroke-miterlimit:4;stroke-dasharray:none;stroke-opacity:1" />
  </g>
  <g
     id="g12022"
     style="display:inline">
    <path
       fill-rule="evenodd"
       clip-rule="evenodd"
       d="m 1.9177202,27.742151 c 0.9979777,-2.309896 2.361371,-4.364737 4.1179015,-6.140406 2.6402782,-2.669043 5.6638763,-4.019687 9.0591423,-4.064559 l 29.521659,-0.173182 0.0305,3.085906 11.251502,-0.0207 -0.115507,-18.8776367 -11.212125,0.06074 -0.02109,3.437541 -29.360065,0.170651 C 11.16112,5.2566653 8.001504,6.4453413 5.6964032,8.7755533 1.8223888,12.691788 0.56534385,19.003677 1.9177172,27.742153 Z M 21.944612,104.90696 39.024603,103.41474 C 38.282449,75.365616 37.268647,48.9849 36.510495,20.935253 l -13.580526,0.07357 C 22.515502,49.06482 21.944612,76.8468 21.944612,104.90695 Z"
       id="path12020"
       style="display:inline;fill:#000000;fill-opacity:1;stroke:none;stroke-width:1.32292;stroke-miterlimit:4;stroke-dasharray:none;stroke-opacity:1"
       mask="url(#mask12128)" />
  </g>
  <style
     type="text/css"
     id="style9">.st0{fill-rule:evenodd;clip-rule:evenodd;}</style>
</svg>
