<?xml version="1.0" encoding="UTF-8" standalone="no"?>
<!-- Created with Inkscape (http://www.inkscape.org/) -->

<svg
   width="400"
   height="400"
   viewBox="0 0 105.83333 105.83333"
   version="1.1"
   id="svg5"
   inkscape:version="1.1.2 (0a00cf5339, 2022-02-04)"
   sodipodi:docname="Bestiary-Builder-Logo.svg"
   xmlns:inkscape="http://www.inkscape.org/namespaces/inkscape"
   xmlns:sodipodi="http://sodipodi.sourceforge.net/DTD/sodipodi-0.dtd"
   xmlns="http://www.w3.org/2000/svg"
   xmlns:svg="http://www.w3.org/2000/svg">
  <sodipodi:namedview
     id="namedview7"
     pagecolor="#505050"
     bordercolor="#ffffff"
     borderopacity="1"
     inkscape:pageshadow="0"
     inkscape:pageopacity="0"
     inkscape:pagecheckerboard="true"
     inkscape:document-units="px"
     showgrid="false"
     units="px"
     inkscape:zoom="1"
     inkscape:cx="59"
     inkscape:cy="112"
     inkscape:window-width="2560"
     inkscape:window-height="1368"
     inkscape:window-x="1080"
     inkscape:window-y="1440"
     inkscape:window-maximized="1"
     inkscape:current-layer="layer1" />
  <defs
     id="defs2" />
  <g
     inkscape:groupmode="layer"
     id="layer2"
     inkscape:label="Book"
     style="display:inline">
    <g
       id="svgg"
       transform="matrix(0.25730026,0,0,0.25730026,-34.919936,-26.37231)"
       style="fill:#1a1a1a">
      <path
         id="path0"
         d="m 260.17132,184.83462 c -0.358,0.04 -1.485,0.163 -2.506,0.273 -6.716,0.721 -11.176,1.96 -20.325,5.648 -26.644,10.741 -51.643,16.772 -71.694,17.298 l -4.222,0.111 v 111.712 111.713 h 0.417 c 0.736,-0.001 6.972,-0.74 11.091,-1.315 22.332,-3.119 46.001,-9.015 64.408,-16.045 8.27,-3.159 2.8433,-5.03906 19.49,-4.908 16.6467,0.13106 47.51924,6.073 74.55324,20.699 1.596,0.863 2.953,1.569 3.017,1.569 0.063,0 -1.25953,-50.29338 0.115,-111.728 v -111.727 l -2.552,-1.558 c -18.878,-11.52 -37.01824,-19.07 -56.01524,-21.405 -2.368,-0.291 -14,-0.54 -15.777,-0.337 m 150.162,-0.002 c -0.357,0.04 -1.568,0.16 -2.691,0.266 -18.298,1.738 -38.84926,10.19 -58.51526,22.375 l -0.876,0.543 -0.006,111.802 c -0.003,61.491 0.058,111.774 0.136,111.74 0.078,-0.034 1.505,-0.802 3.171,-1.707 24.639,-13.38 48.68326,-21.033 69.17626,-20.665 9.476,0.17 13.891,1.05 23.666,4.716 18.052,6.771 37.183,11.82 57.447,15.161 7.002,1.155 17.33,2.526 19.025,2.526 h 0.465 v -111.712 -111.712 l -4.408,-0.116 c -19.881,-0.52 -45.9,-6.794 -71.509,-17.241 -8.714,-3.555 -12.492,-4.638 -19.675,-5.64 -2.02,-0.282 -13.62,-0.535 -15.406,-0.336"
         stroke="none"
         fill="#040404"
         fill-rule="evenodd"
         sodipodi:nodetypes="ccccccccccccsscccccccccsccccsccccccc"
         style="fill:#1a1a1a" />
      <path
         id="path1"
         d=""
         stroke="none"
         fill="#080404"
         fill-rule="evenodd"
         style="fill:#1a1a1a" />
      <path
         id="path2"
         d=""
         stroke="none"
         fill="#080404"
         fill-rule="evenodd"
         style="fill:#1a1a1a" />
      <path
         id="path3"
         d=""
         stroke="none"
         fill="#080404"
         fill-rule="evenodd"
         style="fill:#1a1a1a" />
      <path
         id="path4"
         d=""
         stroke="none"
         fill="#080404"
         fill-rule="evenodd"
         style="fill:#1a1a1a" />
    </g>
  </g>
  <g
     inkscape:label="Dragon"
     inkscape:groupmode="layer"
     id="layer1"
     style="display:inline">
    <path
       class="st0"
       d="m 47.077213,19.746862 c 4.935098,-2.868043 7.338054,-7.622278 10.199636,-13.1322789 1.459862,1.5761333 2.247925,5.4518659 1.924948,10.8714319 13.752383,-0.897879 17.965897,4.607178 28.901936,-7.020021 -4.702573,18.157807 -17.177849,10.06893 -24.270427,11.651522 10.948926,1.240233 12.039389,4.542542 24.648445,2.397973 -4.340818,5.225777 -11.929596,6.910245 -20.016951,3.228299 1.427563,3.927408 16.431102,4.812089 13.453244,16.53618 -2.816357,-4.838208 -5.850339,-6.155676 -8.330807,-7.441127 5.109497,8.836671 4.70901,16.891736 -0.05811,25.696109 -1.052929,1.937866 -2.338378,3.701325 -3.908032,5.22578 2.183325,-4.825286 3.242677,-9.321137 2.3125,-13.229167 -0.884936,3.358967 -17.427866,36.018476 -8.597657,9.263002 -17.63459,17.324527 -21.924212,7.566624 -37.233358,19.607234 5.109507,-23.94557 20.057396,-22.449439 30.302251,-33.546956 2.105816,-2.286682 2.868043,-5.380809 1.963704,-7.609353 -2.635497,-6.485394 -11.866203,-4.579826 -15.212251,-0.620118 -7.554932,8.171199 -7.557304,2.15319 -12.570297,-1.905574 -1.509268,-1.377567 -3.941472,-3.807799 -2.758218,-5.852358 1.897626,-1.957681 4.848445,-2.336163 6.549989,-3.449401 4.897662,-3.064893 8.317823,-8.051469 12.699455,-10.671177 z"
       id="path11"
       style="fill:#ff820d;fill-opacity:1;stroke-width:0.645955"
       sodipodi:nodetypes="ccccccccccccccccccccc" />
  </g>
  <style
     type="text/css"
     id="style9">.st0{fill-rule:evenodd;clip-rule:evenodd;}</style>
</svg>
