<?xml version="1.0" encoding="UTF-8" standalone="no"?>
<!-- Created with Inkscape (http://www.inkscape.org/) -->

<svg
   width="150mm"
   height="150mm"
   viewBox="0 0 150 150"
   version="1.1"
   id="svg5"
   inkscape:version="1.1.2 (0a00cf5339, 2022-02-04)"
   sodipodi:docname="Logo-Inkscape.svg"
   xmlns:inkscape="http://www.inkscape.org/namespaces/inkscape"
   xmlns:sodipodi="http://sodipodi.sourceforge.net/DTD/sodipodi-0.dtd"
   xmlns="http://www.w3.org/2000/svg"
   xmlns:svg="http://www.w3.org/2000/svg">
  <sodipodi:namedview
     id="namedview7"
     pagecolor="#505050"
     bordercolor="#ffffff"
     borderopacity="1"
     inkscape:pageshadow="0"
     inkscape:pageopacity="0"
     inkscape:pagecheckerboard="1"
     inkscape:document-units="mm"
     showgrid="false"
     width="150mm"
     inkscape:zoom="0.95875069"
     inkscape:cx="474.05442"
     inkscape:cy="531.42074"
     inkscape:window-width="2560"
     inkscape:window-height="1368"
     inkscape:window-x="1080"
     inkscape:window-y="1440"
     inkscape:window-maximized="1"
     inkscape:current-layer="layer3" />
  <defs
     id="defs2" />
  <g
     inkscape:groupmode="layer"
     id="layer2"
     inkscape:label="Text"
     style="display:inline">
    <path
       d="m 10.558088,138.72436 h 0.805976 v -7.3072 h -0.805976 v -1.04787 h 3.801594 c 0.447388,0 0.84374,0.0626 1.188382,0.18814 0.344982,0.12554 0.635868,0.29565 0.873341,0.51033 0.237131,0.21501 0.416426,0.47256 0.537204,0.77263 0.120774,0.29973 0.181335,0.6243 0.181335,0.97371 v 0.16126 c 0,0.25959 -0.04049,0.49706 -0.120778,0.71174 -0.08063,0.21501 -0.192562,0.40758 -0.335797,0.57769 -0.143232,0.1701 -0.311298,0.31572 -0.50386,0.43649 -0.192563,0.12112 -0.400776,0.21298 -0.624641,0.27558 v 0.16092 c 0.447726,0.12555 0.824007,0.36506 1.128501,0.71889 0.304498,0.35348 0.456575,0.78556 0.456575,1.29622 v 0.16127 c 0,0.34906 -0.06056,0.67363 -0.181335,0.9737 -0.120778,0.30007 -0.300073,0.55966 -0.537204,0.7791 -0.237473,0.21944 -0.528359,0.39159 -0.873341,0.51714 -0.344642,0.12553 -0.740994,0.18813 -1.188382,0.18813 h -3.801594 z m 1.934139,0 h 1.786482 c 0.528361,0 0.958056,-0.132 1.289767,-0.39635 0.331033,-0.26401 0.497059,-0.62906 0.497059,-1.09482 v -0.0803 c 0,-0.48378 -0.156843,-0.86653 -0.470182,-1.14857 -0.313678,-0.28204 -0.738953,-0.42323 -1.276156,-0.42323 h -1.82697 z m 0,-4.1908 h 1.82697 c 0.537203,0 0.962478,-0.13881 1.276156,-0.41643 0.313339,-0.27761 0.470182,-0.65832 0.470182,-1.14177 v -0.0806 c 0,-0.45657 -0.166026,-0.81721 -0.497059,-1.08122 -0.331711,-0.26434 -0.761406,-0.39635 -1.289767,-0.39635 h -1.786482 z m 7.455195,2.22979 c 0.02688,0.6624 0.23271,1.19552 0.617835,1.59834 0.385127,0.40316 0.922333,0.60457 1.611952,0.60457 0.313344,0 0.586538,-0.0357 0.819247,-0.10751 0.233046,-0.0718 0.432074,-0.17011 0.597761,-0.29565 0.165687,-0.1252 0.300073,-0.27082 0.403158,-0.4365 0.102749,-0.16569 0.185761,-0.3426 0.248361,-0.53074 l 0.994115,0.26878 c -0.188139,0.61817 -0.535162,1.12169 -1.041067,1.51124 -0.505903,0.38955 -1.188719,0.58415 -2.048451,0.58415 -0.474604,0 -0.911105,-0.0827 -1.309841,-0.24835 -0.398394,-0.16569 -0.740993,-0.40078 -1.027454,-0.70528 -0.286465,-0.30449 -0.510667,-0.66716 -0.671592,-1.08802 -0.161263,-0.42084 -0.241894,-0.8866 -0.241894,-1.39692 v -0.32254 c 0,-0.46541 0.08301,-0.89987 0.248698,-1.30269 0.165687,-0.40316 0.396014,-0.75018 0.691664,-1.04107 0.295307,-0.29088 0.642331,-0.51951 1.041068,-0.68519 0.398391,-0.16569 0.830469,-0.24836 1.296227,-0.24836 0.54639,0 1.018616,0.1007 1.417008,0.30211 0.398737,0.20141 0.725345,0.45011 0.98051,0.74542 0.255502,0.29565 0.443303,0.61817 0.56442,0.96724 0.120778,0.3494 0.180996,0.67159 0.180996,0.96724 v 0.85973 z m 2.229787,-2.84763 c -0.29565,0 -0.570884,0.0469 -0.826046,0.14085 -0.255164,0.0942 -0.47937,0.22625 -0.671592,0.39636 -0.192562,0.1701 -0.349405,0.36947 -0.470179,0.59776 -0.12112,0.22828 -0.19937,0.47664 -0.23509,0.74542 h 4.298313 c -0.01769,-0.28647 -0.08744,-0.54639 -0.208217,-0.7791 -0.120775,-0.23271 -0.277616,-0.4297 -0.470181,-0.59096 -0.19256,-0.16126 -0.412004,-0.28647 -0.657979,-0.37628 -0.24632,-0.0895 -0.49944,-0.13405 -0.759029,-0.13405 z m 6.608734,0.91315 c 0,0.32252 0.136768,0.56884 0.409624,0.73895 0.273194,0.17011 0.772633,0.28204 1.497638,0.3358 0.779441,0.0626 1.37244,0.24836 1.780022,0.55727 0.407581,0.30892 0.61103,0.75903 0.61103,1.35033 v 0.0803 c 0,0.32252 -0.06464,0.61137 -0.194605,0.86654 -0.129965,0.25516 -0.308917,0.47222 -0.537544,0.65151 -0.228284,0.17896 -0.505905,0.31572 -0.832515,0.40962 -0.326947,0.0939 -0.682815,0.14085 -1.06794,0.14085 -0.519516,0 -0.964859,-0.0694 -1.336717,-0.20787 -0.371518,-0.13881 -0.680435,-0.32253 -0.926755,-0.55115 -0.246318,-0.22795 -0.432077,-0.48787 -0.557274,-0.77876 -0.125542,-0.29123 -0.196987,-0.58449 -0.215021,-0.8798 l 0.994118,-0.2419 c 0.04457,0.51067 0.241554,0.92029 0.590957,1.22921 0.349066,0.30892 0.814824,0.46337 1.396935,0.46337 0.492639,0 0.888651,-0.0963 1.188724,-0.28884 0.30007,-0.19256 0.450107,-0.46337 0.450107,-0.81278 0,-0.37594 -0.147656,-0.64471 -0.443303,-0.80598 -0.29565,-0.16092 -0.774677,-0.26401 -1.437421,-0.30892 -0.769913,-0.0538 -1.360874,-0.2327 -1.772877,-0.5372 -0.412003,-0.30449 -0.618175,-0.7478 -0.618175,-1.32991 v -0.0806 c 0,-0.31334 0.06736,-0.58858 0.201749,-0.82605 0.134046,-0.23714 0.315722,-0.4365 0.54401,-0.59776 0.228285,-0.16127 0.485829,-0.28205 0.772292,-0.36267 0.286463,-0.0806 0.586536,-0.12078 0.899877,-0.12078 0.438882,0 0.824007,0.0606 1.155381,0.18133 0.331373,0.12078 0.608647,0.27762 0.832855,0.46984 0.223521,0.1929 0.396012,0.41439 0.517128,0.66513 0.12078,0.25074 0.199028,0.50148 0.235091,0.75222 l -0.994117,0.2419 c -0.04491,-0.43004 -0.217058,-0.76584 -0.517131,-1.00739 -0.300071,-0.24189 -0.691661,-0.36267 -1.175454,-0.36267 -0.188138,0 -0.369477,0.0201 -0.544008,0.0602 -0.174529,0.0405 -0.328991,0.1007 -0.463377,0.18134 -0.134384,0.0806 -0.241895,0.18133 -0.322183,0.30245 -0.08098,0.12077 -0.121121,0.26162 -0.121121,0.42289 z m 6.608736,-1.71912 h 2.0954 v -2.74046 h 1.047875 v 2.74046 h 2.579189 v 0.96689 h -2.579189 v 4.32553 c 0,0.26844 0.121116,0.40283 0.362668,0.40283 h 1.893996 v 0.96723 h -2.269934 c -0.304496,0 -0.553193,-0.0983 -0.745417,-0.29564 -0.192905,-0.19699 -0.289188,-0.44773 -0.289188,-0.75223 v -4.64772 h -2.0954 z m 10.517836,-1.98824 c 0,-0.25958 0.09152,-0.48107 0.27524,-0.66478 0.183716,-0.18372 0.4052,-0.27558 0.665124,-0.27558 0.259587,0 0.48107,0.0919 0.664786,0.27558 0.183378,0.18371 0.275236,0.4052 0.275236,0.66478 0,0.25993 -0.09186,0.48141 -0.275236,0.66513 -0.183716,0.18338 -0.405199,0.27524 -0.664786,0.27524 -0.259924,0 -0.481408,-0.0919 -0.665124,-0.27524 -0.18372,-0.18372 -0.27524,-0.4052 -0.27524,-0.66513 z m -1.9076,7.68349 h 2.337638 v -4.72836 h -2.095741 v -0.96689 h 3.143271 v 5.69525 h 2.176033 v 0.96723 h -5.561201 z m 12.895283,-0.16127 h -0.160925 c -0.215019,0.44773 -0.512709,0.7791 -0.893413,0.99412 -0.380702,0.21502 -0.781481,0.32218 -1.202332,0.32218 -0.43888,0 -0.846121,-0.0735 -1.222402,-0.22148 -0.375938,-0.14765 -0.704931,-0.36709 -0.986973,-0.65832 -0.282378,-0.29089 -0.503858,-0.64676 -0.665122,-1.0676 -0.161266,-0.42085 -0.241896,-0.90907 -0.241896,-1.4643 v -0.21502 c 0,-0.54605 0.08063,-1.0295 0.241896,-1.45069 0.161264,-0.42085 0.382744,-0.77671 0.665122,-1.06794 0.282042,-0.29089 0.611035,-0.51237 0.986973,-0.66479 0.376281,-0.15242 0.774677,-0.22828 1.195528,-0.22828 0.456571,0 0.870959,0.1007 1.242476,0.30211 0.371859,0.20141 0.665124,0.51271 0.880143,0.93356 h 0.160925 v -1.04753 h 1.047869 v 5.29242 c 0,0.26844 0.120775,0.40283 0.362674,0.40283 h 0.335795 v 0.96723 h -0.711737 c -0.304496,0 -0.553195,-0.0983 -0.745757,-0.29564 -0.192562,-0.19699 -0.288844,-0.44773 -0.288844,-0.75223 z m -2.14916,0.32253 c 0.313341,0 0.602189,-0.0582 0.866534,-0.17453 0.26401,-0.1167 0.490258,-0.28238 0.678059,-0.49706 0.188139,-0.21502 0.336134,-0.47257 0.443642,-0.7723 0.107168,-0.30007 0.160925,-0.63382 0.160925,-1.00091 v -0.16127 c 0,-0.35791 -0.05376,-0.68724 -0.160925,-0.98732 -0.107508,-0.30007 -0.257547,-0.55727 -0.450109,-0.77229 -0.192561,-0.21468 -0.420849,-0.38274 -0.685198,-0.50352 -0.264009,-0.12112 -0.548431,-0.18134 -0.852928,-0.18134 -0.313342,0 -0.599801,0.0582 -0.859731,0.17454 -0.259585,0.11635 -0.485491,0.27965 -0.678392,0.49025 -0.192566,0.2106 -0.342262,0.46575 -0.450113,0.76583 -0.107168,0.29973 -0.160919,0.62872 -0.160919,0.98697 v 0.21502 c 0,0.76107 0.199366,1.35441 0.597761,1.77968 0.398396,0.42561 0.915527,0.63825 1.551394,0.63825 z m 5.158384,-5.85651 h 2.417587 v 0.8866 h 0.161266 c 0.170108,-0.36743 0.412004,-0.63825 0.725347,-0.81278 0.31334,-0.17453 0.671588,-0.26196 1.074407,-0.26196 0.671931,0 1.213558,0.21944 1.625562,0.65798 0.412003,0.43888 0.631104,1.07917 0.657982,1.92087 l -1.101289,0.16126 c 0,-0.61784 -0.14799,-1.06318 -0.443302,-1.33638 -0.295649,-0.27319 -0.658322,-0.40962 -1.088019,-0.40962 -0.277615,0 -0.51713,0.0534 -0.718537,0.16092 -0.20175,0.10751 -0.369477,0.25517 -0.503863,0.44331 -0.134386,0.18814 -0.23271,0.40758 -0.29565,0.65832 -0.0626,0.25074 -0.0939,0.51951 -0.0939,0.80598 V 138.805 H 64.0196 v 0.96723 H 59.747826 V 138.805 h 1.53132 v -4.72836 h -1.36972 z m 13.432486,5.45335 h -0.161261 c -0.21502,0.43003 -0.497061,0.77025 -0.846467,1.021 -0.34906,0.25073 -0.792363,0.37593 -1.329569,0.37593 -0.367436,0 -0.705271,-0.0602 -1.014188,-0.18133 -0.30892,-0.12078 -0.573267,-0.30211 -0.792709,-0.54367 -0.219102,-0.2419 -0.389552,-0.54197 -0.510328,-0.90022 -0.120776,-0.35825 -0.181336,-0.77467 -0.181336,-1.24928 v -3.97578 h 1.047871 v 3.84174 c 0,0.69846 0.143233,1.20879 0.429697,1.53132 0.286463,0.32219 0.725345,0.48345 1.316305,0.48345 0.635867,0 1.134964,-0.21706 1.497635,-0.65152 0.362672,-0.43446 0.54435,-1.01419 0.54435,-1.73954 v -3.46545 h 1.047534 v 8.30132 c 0,0.30449 -0.09628,0.55489 -0.288848,0.75222 -0.192562,0.19698 -0.440922,0.2953 -0.745418,0.2953 h -3.801255 v -0.96723 h 3.424974 c 0.241897,0 0.363013,-0.13405 0.363013,-0.40282 z m 11.202698,0.16126 h 0.805635 v -7.3072 h -0.805635 v -1.04787 h 3.801253 c 0.447728,0 0.844085,0.0626 1.188724,0.18814 0.34498,0.12554 0.635864,0.29565 0.87334,0.51033 0.237132,0.21501 0.416082,0.47256 0.537201,0.77263 0.120778,0.29973 0.181335,0.6243 0.181335,0.97371 v 0.16126 c 0,0.25959 -0.04048,0.49706 -0.120773,0.71174 -0.08063,0.21501 -0.192908,0.40758 -0.335795,0.57769 -0.143574,0.1701 -0.311303,0.31572 -0.503865,0.43649 -0.192561,0.12112 -0.400775,0.21298 -0.624641,0.27558 v 0.16092 c 0.447727,0.12555 0.824007,0.36506 1.128506,0.71889 0.304496,0.35348 0.456568,0.78556 0.456568,1.29622 v 0.16127 c 0,0.34906 -0.06056,0.67363 -0.181335,0.9737 -0.121119,0.30007 -0.300069,0.55966 -0.537201,0.7791 -0.237476,0.21944 -0.52836,0.39159 -0.87334,0.51714 -0.344639,0.12553 -0.740996,0.18813 -1.188724,0.18813 h -3.801253 z m 1.934139,0 h 1.786485 c 0.528357,0 0.958055,-0.132 1.289422,-0.39635 0.331374,-0.26401 0.497061,-0.62906 0.497061,-1.09482 v -0.0803 c 0,-0.48378 -0.1565,-0.86653 -0.46984,-1.14857 -0.313681,-0.28204 -0.738953,-0.42323 -1.276159,-0.42323 h -1.826969 z m 0,-4.1908 h 1.826969 c 0.537206,0 0.962478,-0.13881 1.276159,-0.41643 0.31334,-0.27761 0.46984,-0.65832 0.46984,-1.14177 v -0.0806 c 0,-0.45657 -0.165687,-0.81721 -0.497061,-1.08122 -0.331367,-0.26434 -0.761065,-0.39635 -1.289422,-0.39635 h -1.786485 z m 11.444591,-1.42381 h 1.047529 v 6.66248 h -1.047529 v -1.20913 h -0.161262 c -0.215017,0.43003 -0.497059,0.77025 -0.846123,1.021 -0.349405,0.25073 -0.792709,0.37593 -1.329912,0.37593 -0.367096,0 -0.705272,-0.0602 -1.014191,-0.18133 -0.308915,-0.12078 -0.573265,-0.30211 -0.792709,-0.54367 -0.219097,-0.2419 -0.389207,-0.54197 -0.510326,-0.90022 -0.120778,-0.35825 -0.181335,-0.77467 -0.181335,-1.24928 v -3.97578 h 1.047873 v 3.84174 c 0,0.69846 0.14323,1.20879 0.429695,1.53132 0.286803,0.32219 0.725683,0.48345 1.316302,0.48345 0.635868,0 1.135309,-0.21706 1.497978,-0.65152 0.362672,-0.43446 0.54401,-1.01419 0.54401,-1.73954 z m 5.533984,-1.98824 c 0,-0.25958 0.0919,-0.48107 0.27558,-0.66478 0.18372,-0.18372 0.4052,-0.27558 0.66479,-0.27558 0.25992,0 0.4814,0.0919 0.66512,0.27558 0.18338,0.18371 0.27524,0.4052 0.27524,0.66478 0,0.25993 -0.0919,0.48141 -0.27524,0.66513 -0.18372,0.18338 -0.4052,0.27524 -0.66512,0.27524 -0.25959,0 -0.48107,-0.0919 -0.66479,-0.27524 -0.18372,-0.18372 -0.27558,-0.4052 -0.27558,-0.66513 z m -1.90726,7.68349 h 2.3373 v -4.72836 h -2.09541 v -0.96689 h 3.14328 v 5.69525 h 2.17603 v 0.96723 h -5.5612 z m 8.05976,0 h 2.4176 v -7.46847 h -2.3373 v -0.96724 h 3.38517 v 8.43571 h 2.41758 v 0.96723 h -5.88305 z m 13.37874,-0.0538 h -0.16127 c -0.10751,0.20617 -0.24427,0.38513 -0.40962,0.53721 -0.16602,0.15241 -0.34498,0.27761 -0.53755,0.37627 -0.19255,0.0983 -0.39635,0.1725 -0.61102,0.22183 -0.21502,0.049 -0.42085,0.0735 -0.61818,0.0735 -0.44739,0 -0.86381,-0.0759 -1.24894,-0.22828 -0.38513,-0.15208 -0.72296,-0.37152 -1.01419,-0.65832 -0.29089,-0.28647 -0.51951,-0.64234 -0.6852,-1.06761 -0.16568,-0.42561 -0.24836,-0.9111 -0.24836,-1.45749 v -0.21502 c 0,-0.5372 0.085,-1.01861 0.25516,-1.44389 0.17011,-0.42527 0.3984,-0.78351 0.68521,-1.07474 0.28646,-0.29089 0.62225,-0.51237 1.00738,-0.66479 0.38513,-0.15242 0.79237,-0.22828 1.2224,-0.22828 0.45657,0 0.88423,0.1007 1.28263,0.30211 0.39839,0.20141 0.70527,0.51271 0.92028,0.93356 h 0.16127 v -3.78799 h 1.04753 v 9.40294 h -1.04753 z m -2.23013,0.21502 c 0.31368,0 0.60457,-0.0582 0.87334,-0.17453 0.26877,-0.1167 0.50352,-0.28238 0.70493,-0.49706 0.20175,-0.21502 0.36063,-0.47257 0.47698,-0.7723 0.11636,-0.30007 0.17488,-0.63382 0.17488,-1.00091 v -0.16127 c 0,-0.35791 -0.0585,-0.68724 -0.17488,-0.98732 -0.11635,-0.30007 -0.27523,-0.55727 -0.47698,-0.77229 -0.20141,-0.21468 -0.43854,-0.38274 -0.71174,-0.50352 -0.27319,-0.12112 -0.56204,-0.18134 -0.86653,-0.18134 -0.31334,0 -0.60661,0.0582 -0.87981,0.17454 -0.27319,0.11635 -0.51032,0.28203 -0.71173,0.49705 -0.20141,0.21468 -0.35825,0.46985 -0.47018,0.76549 -0.11194,0.29565 -0.16773,0.62226 -0.16773,0.98051 v 0.21502 c 0,0.37628 0.0558,0.71208 0.16773,1.00738 0.11193,0.29565 0.26877,0.54878 0.47018,0.75903 0.20141,0.21059 0.4365,0.37152 0.70527,0.48345 0.26843,0.11193 0.56408,0.16807 0.88627,0.16807 z m 6.05826,-2.20291 c 0.0269,0.6624 0.23271,1.19552 0.61784,1.59834 0.38512,0.40316 0.92233,0.60457 1.61195,0.60457 0.31334,0 0.58653,-0.0357 0.81924,-0.10751 0.23305,-0.0718 0.43208,-0.17011 0.59811,-0.29565 0.16534,-0.1252 0.29973,-0.27082 0.40281,-0.4365 0.10309,-0.16569 0.18576,-0.3426 0.24836,-0.53074 l 0.99412,0.26878 c -0.18814,0.61817 -0.53516,1.12169 -1.04107,1.51124 -0.5059,0.38955 -1.18872,0.58415 -2.04845,0.58415 -0.4746,0 -0.9111,-0.0827 -1.30984,-0.24835 -0.39839,-0.16569 -0.74099,-0.40078 -1.02746,-0.70528 -0.28646,-0.30449 -0.51033,-0.66716 -0.67159,-1.08802 -0.16126,-0.42084 -0.24189,-0.8866 -0.24189,-1.39692 v -0.32254 c 0,-0.46541 0.083,-0.89987 0.24836,-1.30269 0.16603,-0.40316 0.39635,-0.75018 0.692,-1.04107 0.29565,-0.29088 0.64267,-0.51951 1.04107,-0.68519 0.39839,-0.16569 0.83047,-0.24836 1.29623,-0.24836 0.54605,0 1.01861,0.1007 1.41735,0.30211 0.39839,0.20141 0.725,0.45011 0.9805,0.74542 0.25517,0.29565 0.44331,0.61817 0.56408,0.96724 0.12078,0.3494 0.18134,0.67159 0.18134,0.96724 v 0.85973 z m 2.22979,-2.84763 c -0.29531,0 -0.57089,0.0469 -0.82605,0.14085 -0.25516,0.0942 -0.47903,0.22625 -0.67159,0.39636 -0.19256,0.1701 -0.34941,0.36947 -0.47018,0.59776 -0.12078,0.22828 -0.19937,0.47664 -0.23509,0.74542 h 4.29831 c -0.0177,-0.28647 -0.0871,-0.54639 -0.20821,-0.7791 -0.12078,-0.23271 -0.27762,-0.4297 -0.46984,-0.59096 -0.19257,-0.16126 -0.41201,-0.28647 -0.65833,-0.37628 -0.24631,-0.0895 -0.49944,-0.13405 -0.75902,-0.13405 z m 4.84912,-0.80597 h 2.41793 v 0.8866 h 0.16127 c 0.17011,-0.36743 0.412,-0.63825 0.72534,-0.81278 0.31334,-0.17453 0.67159,-0.26196 1.07441,-0.26196 0.67159,0 1.21356,0.21944 1.62556,0.65798 0.41167,0.43888 0.6311,1.07917 0.65798,1.92087 l -1.10162,0.16126 c 0,-0.61784 -0.14766,-1.06318 -0.44297,-1.33638 -0.29565,-0.27319 -0.65832,-0.40962 -1.08801,-0.40962 -0.27762,0 -0.51713,0.0534 -0.71855,0.16092 -0.20174,0.10751 -0.36947,0.25517 -0.50386,0.44331 -0.13438,0.18814 -0.2327,0.40758 -0.29565,0.65832 -0.0626,0.25074 -0.0939,0.51951 -0.0939,0.80598 v 2.82075 h 1.69259 v 0.96723 h -4.27178 v -0.96723 h 1.53132 v -4.72836 h -1.37006 v -0.96689"
       style="fill:#324661;fill-opacity:1;fill-rule:nonzero;stroke:none;stroke-width:0.0340218"
       id="path850" />
  </g>
  <g
     inkscape:label="Book"
     inkscape:groupmode="layer"
     id="layer1">
    <g
       id="g848"
       transform="matrix(0.03527778,0,0,-0.03527778,-28.416169,216.37187)">
      <text
         xml:space="preserve"
         style="font-style:normal;font-weight:normal;font-size:300px;line-height:1.25;font-family:sans-serif;fill:#000000;fill-opacity:1;stroke:none;stroke-width:7.5"
         x="2772.0601"
         y="-1417.9"
         id="text5227"
         transform="scale(1,-1)"><tspan
           sodipodi:role="line"
           id="tspan5225"
           style="stroke-width:7.5"
           x="2772.0601"
           y="-1417.9" /></text>
    </g>
    <g
       inkscape:groupmode="layer"
       id="layer3"
       inkscape:label="Book-Pages">
      <path
         d="m 77.5294,111.20335 c -0.336486,0.20785 -1.916007,1.3974 -2.027721,1.31886 -7.364772,-6.88882 -26.534312,-12.908329 -36.387185,-12.908329 -6.638999,0 -13.499384,1.044659 -19.918342,2.926139 V 28.134667 C 25.61511,26.044663 32.475495,25 39.114494,25 52.663973,25 65.603443,29.207764 74.838189,36.525149 84.525189,29.207764 97.535073,25 110.75078,25 c 6.9071,0 13.59145,1.044663 20.05307,3.134667 V 102.53934 C 109.84084,96.640349 96.111272,99.715439 77.5294,111.20335 Z M 72.144949,58.709521 c -0.211236,0.394035 -0.759633,0.396067 -1.207153,0.414344 -0.337163,0.01286 -0.67365,0.06567 -0.998625,0.15572 -0.524023,0.14556 -1.041954,0.391326 -1.583581,0.346643 -1.053469,-0.08599 -1.868615,-1.236267 -2.916665,-1.102215 1.095443,-0.362889 2.266033,-0.690574 3.389232,-0.427885 0.566678,0.132701 1.089346,0.409607 1.643161,0.586991 0.554493,0.176706 1.185489,0.246436 1.699356,-0.02641 z m 9.037726,-3.852323 c 0.557876,0.550432 0.601204,1.62759 0.07854,2.278895 -0.643862,0.802287 -1.795495,1.019616 -2.815784,0.883532 -1.019616,-0.135407 -1.976262,-0.558553 -2.972859,-0.813795 -0.8815,-0.225453 -1.796168,-0.318883 -2.705425,-0.275555 -0.39945,0.01896 -0.811085,0.06229 -1.189552,-0.06635 -1.333081,-0.452938 -1.23897,-2.475914 -2.287697,-3.414959 -0.78739,-0.704794 -2.014852,-0.605268 -3.000612,-0.225453 -0.985763,0.379137 -1.886218,0.992533 -2.918019,1.217983 -1.864551,0.408252 -3.785973,-0.541627 -5.19285,-1.830699 -3.495524,-3.203046 -4.59503,-8.74322 -2.586271,-13.038999 -3.291738,1.633009 -4.665437,5.89629 -3.811697,9.470352 0.853736,3.573385 3.484012,6.483954 6.444686,8.659266 -3.570679,-1.746751 -7.20229,-3.72098 -9.57597,-6.909809 -2.37368,-3.18951 -3.12722,-7.92062 -0.729167,-11.091168 -2.031778,1.588318 -3.647857,3.911896 -3.754152,6.488014 -0.044,1.079193 0.174674,2.153645 0.477308,3.190184 2.06428,7.069589 8.375587,12.712665 15.630685,13.977367 -2.590334,3.096073 -3.732491,7.355974 -3.039209,11.33287 0.69396,3.976896 3.210497,7.597673 6.696545,9.634192 4.066946,2.376389 9.098658,2.513151 13.695042,1.337141 0,0 -5.789994,0.03385 -9.563104,-2.026359 -3.79342,-2.070372 -7.146767,-5.184726 -7.454819,-9.559721 -0.06567,-0.932953 0.332422,-2.088649 1.082576,-2.649234 0.343934,-0.257274 0.797546,-0.314142 1.227462,-0.310759 2.436643,0.01964 4.593001,1.668212 7.016101,1.924809 1.437344,0.152333 2.874011,-0.19431 4.310677,-0.356796 1.435989,-0.161812 2.995877,-0.108328 4.173915,0.728486 0.236287,0.167905 0.460382,0.368307 0.73932,0.44481 0.602562,0.16655 1.190227,-0.295186 1.598479,-0.767753 1.456302,-1.686493 0.523349,-3.335747 0.295864,-5.552356 -0.830044,2.088649 -1.563271,1.827992 -3.480633,1.647899 -1.405523,-0.132697 -12.115522,-3.183414 -13.466206,-3.351992 0.269462,-0.673651 9.637579,-0.390652 13.794568,-1.458334 0.781974,-0.201077 2.205101,-0.341902 2.838126,0.160457 0.507097,0.402834 0.383201,2.411596 0.383201,2.411596 0.654692,-0.322947 0.874053,-3.255857 0.874053,-3.255857 2.045317,-0.176706 2.889578,-2.496901 2.505026,-4.513107 -0.350026,-1.836117 -1.72847,-3.303253 -3.318144,-4.318801 z m 16.713258,-8.745923 c -1.968137,1.050079 -3.698635,2.747402 -4.276821,4.902402 -0.339873,1.265375 -0.266075,2.606579 -0.06703,3.901069 0.57006,3.706764 2.126565,7.179269 3.158363,10.784474 0.729841,2.549709 1.22543,5.574697 0.6073,8.193466 -0.635734,2.689179 -1.848302,5.482622 -3.586251,7.605797 -2.050055,2.50503 -4.737206,4.764289 -7.491381,6.471769 -7.38576,4.577426 -11.804764,5.308625 -18.905493,4.286303 -4.846885,-0.698024 -8.682282,-2.888904 -11.766174,-6.614622 -2.769743,-3.347255 -4.889539,-7.332956 -5.496836,-11.634827 -0.570741,-4.043928 0.306018,-8.374236 2.780577,-11.602333 -1.250484,-0.733228 -2.203742,-1.509109 -2.9302,-2.263327 -6.959911,5.870565 -7.076359,14.84194 -5.758177,18.588649 -0.430594,-1.50911 1.810389,-3.728428 3.257889,-4.332344 0,0 -1.215955,4.817099 0.387939,9.307188 1.015552,2.838803 2.597104,6.368179 6.343809,8.542137 -0.688544,-1.25319 -0.74609,-4.676274 -0.155042,-5.978885 2.187497,5.114989 6.752738,9.154175 12.095213,10.701197 -0.725781,-0.907902 -1.235587,-1.987095 -1.475935,-3.125188 2.479975,0.97222 4.95995,1.943763 7.439929,2.915306 1.620816,0.635057 3.305278,1.280951 5.043227,1.184808 -0.531474,-0.853059 -1.062948,-1.705448 -1.594418,-2.557829 2.87401,1.00336 7.239526,1.030442 10.163634,0.183476 2.923431,-0.84697 6.119033,-2.329 8.803475,-3.76499 -1.02706,-0.53553 -3.715565,-1.278237 -4.741948,-1.813771 7.188747,-0.567355 13.743108,-5.980244 15.659798,-12.931349 -2.06157,1.244388 -4.12246,2.488777 -6.184031,3.733839 0,0 3.087271,-5.88613 2.715581,-12.146662 -0.28977,-4.891571 -1.88892,-8.694474 -3.213202,-13.412048 -1.932252,-6.881368 1.946472,-8.616608 5.541522,-11.14939 -2.17802,0.481369 -4.387177,0.974926 -6.355317,2.025685 z m -2.066308,-3.426471 c -2.936293,1.266053 -5.182016,3.583542 -6.433175,6.532701 -1.452915,3.423084 -0.922118,6.581447 0.100877,10.042448 1.039248,3.515159 2.515856,7.030992 2.584242,10.748589 0.06973,3.846227 -1.524007,8.043838 -4.113661,10.83593 -6.341099,6.837363 -17.933953,9.816314 -25.616935,3.999237 C 51.888092,76.921735 56.349747,66.70597 57.549449,64.403376 56.185225,63.988357 55.00651,63.518492 53.990284,63.016811 c -0.923477,1.915333 -1.64181,3.964711 -1.989804,6.054714 -0.679066,4.07033 0.14624,8.155553 2.142133,11.754663 0.786039,1.418389 1.786693,2.674962 2.865209,3.879405 2.287019,2.55445 5.177279,4.463684 8.446675,5.506996 5.686411,1.814449 12.005166,0.817181 17.292804,-1.777214 5.272064,-2.586947 10.08916,-7.177913 11.730966,-12.955045 0.824626,-2.905153 0.755569,-5.848219 0.03927,-8.761497 -0.844941,-3.436624 -2.481329,-6.647117 -3.099463,-10.145354 -0.986438,-5.582144 1.425836,-10.637559 6.645088,-13.009884 2.640428,-1.200383 5.548968,-1.664148 8.426368,-2.034487 -3.56662,-0.841555 -7.268639,-0.307372 -10.659903,1.155696 z m 19.693565,8.224609 1.37844,4.487383 4.48738,1.378441 -4.48738,1.37844 -1.37844,4.487383 -1.37844,-4.487383 -4.48806,-1.37844 4.48806,-1.378441 z m -4.54019,9.079703 0.31211,1.014198 1.0142,0.312113 -1.0142,0.311432 -0.31211,1.014201 -0.31143,-1.014201 -1.01488,-0.311432 1.01488,-0.312113 z m -78.367357,-1.785341 -0.955294,3.108943 -3.10962,0.955294 3.10962,0.955297 0.955294,3.109617 0.955294,-3.109617 3.108939,-0.955297 -3.108939,-0.955294 z m 4.539513,7.27812 -0.311439,1.014871 -1.014868,0.311436 1.014868,0.311436 0.311439,1.014874 0.312113,-1.014874 1.014197,-0.311436 -1.014197,-0.311436 -0.312113,-1.014871"
         style="fill:#ff4500;fill-opacity:1;fill-rule:evenodd;stroke:none;stroke-width:0.0677034"
         id="path852" />
    </g>
    <g
       inkscape:groupmode="layer"
       id="layer4"
       inkscape:label="Book-Edge">
      <path
         d="m 74.791474,117.58846 c -1.542962,0 -16.340216,-13.79389 -36.785288,-13.79389 -6.897621,0 -13.585363,1.25386 -20.272429,3.55239 -0.627609,0.20921 -1.254545,0.20921 -1.881477,-0.2092 -0.626935,-0.41773 -0.835459,-1.04466 -0.835459,-1.67159 V 37.958432 H 14.807617 C 13.134667,38.37616 11.672273,38.794565 10,39.420823 v 73.986947 c 6.896947,-2.29921 14.212299,-3.34387 22.153903,-3.34387 16.511507,0 32.234944,5.20774 43.103368,15.03015 11.076955,-9.82241 25.868109,-15.03015 42.588149,-15.03015 7.94364,0 15.25696,1.04466 22.15458,3.34387 V 39.420823 c -1.67227,-0.626258 -3.13535,-1.044663 -4.80762,-1.462391 h -0.20785 v 67.507738 c 0,0.62693 -0.41976,1.25386 -0.83681,1.67159 -0.62761,0.41773 -1.25319,0.41773 -1.8808,0.2092 -6.47786,-2.29853 -13.37616,-3.55239 -20.27379,-3.55239 -20.83707,0 -35.166495,13.79389 -36.783925,13.79389 h -0.20853 -0.209201"
         style="fill:#324661;fill-opacity:1;fill-rule:evenodd;stroke:none;stroke-width:0.0677034"
         id="path854" />
    </g>
  </g>
</svg>
