<?xml version="1.0" encoding="UTF-8" standalone="no"?>
<!-- Created with Inkscape (http://www.inkscape.org/) -->

<svg
   width="250mm"
   height="150mm"
   viewBox="0 0 250 150"
   version="1.1"
   id="svg5"
   xmlns="http://www.w3.org/2000/svg"
   xmlns:svg="http://www.w3.org/2000/svg">
  <defs
     id="defs2" />
  <g
     id="layer1">
    <g
       id="g848"
       transform="matrix(0.03527778,0,0,-0.03527778,-28.416169,216.37187)">
      <path
         d="m 805.49765,2549.5544 h 43.93572 v 398.3332 h -43.93572 v 57.1219 h 207.23405 c 24.3882,0 45.9943,-3.4125 64.7816,-10.2561 18.8058,-6.8434 34.6627,-16.1166 47.6079,-27.8191 12.9266,-11.721 22.7004,-25.7605 29.2843,-42.1182 6.5837,-16.3391 9.885,-34.0322 9.885,-53.079 v -8.7908 c 0,-14.1507 -2.207,-27.0959 -6.5839,-38.7984 -4.3954,-11.7211 -10.497,-22.2183 -18.3051,-31.4913 -7.8079,-9.273 -16.9696,-17.2108 -27.4666,-23.7946 -10.4971,-6.6025 -21.8473,-11.61 -34.0507,-15.0224 v -8.7722 c 24.4066,-6.8436 44.9186,-19.9 61.5173,-39.1881 16.5989,-19.2692 24.889,-42.8229 24.889,-70.6605 v -8.7909 c 0,-19.0284 -3.3013,-36.7213 -9.885,-53.0789 -6.5839,-16.3577 -16.3577,-30.5084 -29.2843,-42.4706 -12.9452,-11.9623 -28.8021,-21.3466 -47.6079,-28.1903 -18.7873,-6.8433 -40.3934,-10.2558 -64.7816,-10.2558 H 805.49765 Z m 105.43461,0 h 97.38544 c 28.8022,0 52.2259,7.1959 70.3083,21.6062 18.0454,14.3917 27.0959,34.2915 27.0959,59.6812 v 4.377 c 0,26.3725 -8.5499,47.2368 -25.6308,62.6116 -17.0993,15.3746 -40.2821,23.0712 -69.5663,23.0712 h -99.59254 z m 0,228.4507 h 99.59254 c 29.2842,0 52.467,7.5669 69.5663,22.7005 17.0809,15.1335 25.6308,35.8868 25.6308,62.2407 v 4.3955 c 0,24.8888 -9.0505,44.5477 -27.0959,58.9395 -18.0824,14.4103 -41.5061,21.6063 -70.3083,21.6063 H 910.93226 Z M 1317.3329,2656.454 c 1.4653,-36.1094 12.6856,-65.1709 33.6797,-87.1295 20.9942,-21.9772 50.2786,-32.9565 87.8714,-32.9565 17.0811,0 31.9736,1.9474 44.6591,5.8606 12.7039,3.9132 23.5534,9.273 32.5854,16.1165 9.032,6.8249 16.3577,14.7628 21.9771,23.7948 5.6011,9.0319 10.1263,18.6759 13.5388,28.9317 l 54.1916,-14.6515 c -10.2559,-33.6981 -29.173,-61.1463 -56.7511,-82.3817 -27.578,-21.2353 -64.7999,-31.8435 -111.666,-31.8435 -25.8718,0 -49.6665,4.5067 -71.4026,13.5385 -21.7174,9.032 -40.3933,21.8474 -56.009,38.4461 -15.6159,16.5986 -27.8377,36.3689 -36.6101,59.3106 -8.7908,22.9414 -13.1862,48.331 -13.1862,76.15 v 17.5819 c 0,25.3711 4.5252,49.0544 13.5571,71.013 9.032,21.9771 21.5877,40.8941 37.7043,56.7511 16.0979,15.857 35.015,28.3198 56.7511,37.3518 21.7173,9.032 45.2709,13.5387 70.6605,13.5387 29.785,0 55.5272,-5.4896 77.2445,-16.469 21.7361,-10.9792 39.5403,-24.5365 53.45,-40.6345 13.928,-16.1165 24.1655,-33.6983 30.7679,-52.7265 6.5839,-19.047 9.8665,-36.61 9.8665,-52.7266 v -46.866 z m 121.5511,155.2309 c -16.1166,0 -31.1203,-2.5593 -45.0298,-7.678 -13.9096,-5.1374 -26.1316,-12.3333 -36.6101,-21.6063 -10.497,-9.273 -19.0469,-20.1411 -25.6306,-32.5856 -6.6025,-12.4442 -10.8681,-25.983 -12.8153,-40.6344 h 234.3114 c -0.9645,15.6159 -4.7665,29.7849 -11.3504,42.4705 -6.5837,12.6855 -15.1335,23.4237 -25.6307,32.2145 -10.4969,8.791 -22.4593,15.616 -35.868,20.512 -13.4275,4.8778 -27.2257,7.3073 -41.3765,7.3073 z m 360.258,-49.7778 c 0,-17.5817 7.4556,-31.009 22.3296,-40.282 14.8925,-9.2731 42.1181,-15.3747 81.6399,-18.3051 42.4892,-3.4124 74.815,-13.5387 97.0333,-30.3785 22.2182,-16.8399 33.3087,-41.3764 33.3087,-73.6095 v -4.3769 c 0,-17.5816 -3.5237,-33.3272 -10.6084,-47.237 -7.0847,-13.9095 -16.8398,-25.7418 -29.3028,-35.5155 -12.4443,-9.7555 -27.5781,-17.211 -45.3824,-22.3297 -17.8227,-5.1188 -37.2219,-7.678 -58.216,-7.678 -28.3201,0 -52.5968,3.7834 -72.8677,11.3316 -20.2523,7.5668 -37.0921,17.5818 -50.5196,30.0448 -13.4274,12.4258 -23.5536,26.595 -30.3784,42.452 -6.8436,15.8755 -10.7382,31.862 -11.7213,47.9601 l 54.1918,13.1862 c 2.4295,-27.8376 13.1677,-50.167 32.2145,-67.0068 19.0284,-16.84 44.418,-25.2599 76.1503,-25.2599 26.8549,0 48.4425,5.2485 64.8002,15.7455 16.3575,10.4971 24.5364,25.2597 24.5364,44.3067 0,20.4935 -8.0491,35.1449 -24.1655,43.9358 -16.1166,8.7722 -42.2295,14.3917 -78.3573,16.8399 -41.9698,2.9302 -74.1845,12.6855 -96.6438,29.2842 -22.4593,16.5988 -33.6982,40.7643 -33.6982,72.4966 v 4.3955 c 0,17.081 3.6721,32.0849 10.9978,45.03 7.3072,12.9267 17.2108,23.7947 29.6553,32.5854 12.4444,8.791 26.4837,15.3749 42.0995,19.7701 15.6158,4.3955 31.9735,6.584 49.0545,6.584 23.9245,0 44.9186,-3.3012 62.9826,-9.8851 18.0639,-6.5839 33.1788,-15.1336 45.4009,-25.6121 12.1847,-10.5156 21.5876,-22.5893 28.1899,-36.2576 6.584,-13.6687 10.8495,-27.337 12.8154,-41.0055 l -54.1917,-13.1863 c -2.4482,23.4423 -11.8324,41.7474 -28.1901,54.915 -16.3576,13.1861 -37.7041,19.7703 -64.0768,19.7703 -10.2559,0 -20.1411,-1.0944 -29.6552,-3.2828 -9.514,-2.2069 -17.9341,-5.4896 -25.2598,-9.8852 -7.3256,-4.3953 -13.1863,-9.885 -17.563,-16.4873 -4.4141,-6.5839 -6.6026,-14.2619 -6.6026,-23.0529 z m 360.2582,93.7135 h 114.2253 v 149.3889 h 57.1222 v -149.3889 h 140.5978 v -52.708 h -140.5978 v -235.795 c 0,-14.6331 6.6023,-21.9588 19.7699,-21.9588 h 103.2463 v -52.7265 h -123.7396 c -16.5988,0 -30.1559,5.3598 -40.6345,16.1165 -10.5157,10.7382 -15.7643,24.4067 -15.7643,41.0056 v 253.3582 h -114.2253 z m 573.3526,108.3834 c 0,14.1506 4.989,26.2243 15.004,36.2391 10.0148,10.0149 22.0884,15.0223 36.2575,15.0223 14.1507,0 26.2243,-5.0074 36.2391,-15.0223 9.9964,-10.0148 15.0038,-22.0885 15.0038,-36.2391 0,-14.1692 -5.0074,-26.2427 -15.0038,-36.2575 -10.0148,-9.9965 -22.0884,-15.004 -36.2391,-15.004 -14.1691,0 -26.2427,5.0075 -36.2575,15.004 -10.015,10.0148 -15.004,22.0883 -15.004,36.2575 z m -103.9879,-418.8452 h 127.4303 v 257.7538 h -114.2439 v 52.708 h 171.3473 v -310.4618 h 118.6208 v -52.7265 h -303.1545 z m 702.953,8.7908 h -8.7724 c -11.7212,-24.4066 -27.949,-42.4705 -48.7021,-54.1915 -20.753,-11.7212 -42.6004,-17.5632 -65.542,-17.5632 -23.9244,0 -46.1241,4.0057 -66.6361,12.0736 -20.4933,8.0488 -38.4275,20.0111 -53.8023,35.8865 -15.3931,15.857 -27.4665,35.2563 -36.2574,58.1976 -8.791,22.9417 -13.1863,49.5553 -13.1863,79.8225 v 11.7212 c 0,29.7663 4.3953,56.1206 13.1863,79.0806 8.7909,22.9415 20.8643,42.3406 36.2574,58.2162 15.3748,15.8569 33.309,27.9304 53.8023,36.239 20.512,8.3087 42.2295,12.4445 65.1711,12.4445 24.8888,0 47.4781,-5.4896 67.7304,-16.469 20.2709,-10.9792 36.2575,-27.949 47.9787,-50.8905 h 8.7724 v 57.1035 h 57.1219 v -288.503 c 0,-14.6331 6.5837,-21.9588 19.7702,-21.9588 h 18.305 v -52.7265 h -38.7985 c -16.5988,0 -30.156,5.3598 -40.653,16.1165 -10.497,10.7382 -15.7456,24.4067 -15.7456,41.0056 z M 3214.562,2536.368 c 17.081,0 32.8268,3.1714 47.2369,9.5141 14.3918,6.3614 26.7251,15.3933 36.9626,27.096 10.2559,11.721 18.3235,25.7605 24.184,42.0995 5.842,16.3578 8.7724,34.5515 8.7724,54.5625 v 8.791 c 0,19.5105 -2.9304,37.4632 -8.7724,53.8209 -5.8605,16.3576 -14.0395,30.3784 -24.5365,42.0996 -10.497,11.7025 -22.9415,20.8643 -37.3518,27.4482 -14.3918,6.6023 -29.8963,9.8851 -46.4952,9.8851 -17.081,0 -32.6966,-3.1715 -46.866,-9.5143 -14.1506,-6.3427 -26.4653,-15.2447 -36.9808,-26.7248 -10.4972,-11.4802 -18.6575,-25.3895 -24.5367,-41.7472 -5.842,-16.3391 -8.7721,-34.2732 -8.7721,-53.8023 v -11.7212 c 0,-41.4876 10.8679,-73.832 32.5854,-97.0145 21.7175,-23.2013 49.9076,-34.7926 84.5702,-34.7926 z m 281.196,319.2526 h 131.7885 v -48.3311 h 8.791 c 9.273,20.0299 22.4593,34.7925 39.5404,44.3066 17.0809,9.514 36.6099,14.2805 58.5685,14.2805 36.6286,0 66.154,-11.9623 88.6133,-35.8682 22.4593,-23.9244 34.403,-58.8283 35.8682,-104.7113 l -60.0339,-8.7908 c 0,33.6798 -8.0673,57.9566 -24.1655,72.8491 -16.1165,14.8925 -35.8867,22.3295 -59.3105,22.3295 -15.1335,0 -28.19,-2.9118 -39.1692,-8.7723 -10.9979,-5.8606 -20.1411,-13.9095 -27.4668,-24.1656 -7.3257,-10.2559 -12.6856,-22.2184 -16.1166,-35.8866 -3.4125,-13.6686 -5.1189,-28.32 -5.1189,-43.9358 v -153.7658 h 92.267 v -52.7265 h -232.8647 v 52.7265 h 83.4759 v 257.7538 h -74.6667 z m 732.2372,-297.2755 h -8.7907 c -11.7213,-23.4422 -27.096,-41.9883 -46.143,-55.657 -19.0281,-13.6683 -43.1936,-20.4932 -72.478,-20.4932 -20.0298,0 -38.446,3.2826 -55.2858,9.8849 -16.84,6.584 -31.2502,16.469 -43.2125,29.6368 -11.9438,13.1863 -21.2354,29.544 -27.8192,49.0729 -6.5838,19.5291 -9.8851,42.2296 -9.8851,68.1014 v 216.7297 h 57.122 v -209.4225 c 0,-38.0752 7.808,-65.8943 23.4238,-83.4761 15.6158,-17.5632 39.5403,-26.354 71.755,-26.354 34.6626,0 61.8696,11.8324 81.6397,35.5158 19.7701,23.6833 29.6738,55.2858 29.6738,94.8263 v 188.9105 h 57.1036 v -452.525 c 0,-16.5986 -5.2486,-30.2486 -15.7458,-41.0055 -10.497,-10.738 -24.0357,-16.0977 -40.6345,-16.0977 h -207.2156 v 52.7262 h 186.7036 c 13.1864,0 19.7887,7.3074 19.7887,21.9587 z m 610.6861,-8.7907 h 43.9171 v 398.3332 h -43.9171 v 57.1219 h 207.2155 c 24.4067,0 46.0131,-3.4125 64.8002,-10.2561 18.8057,-6.8434 34.6625,-16.1166 47.6079,-27.8191 12.9266,-11.721 22.6816,-25.7605 29.2841,-42.1182 6.5839,-16.3391 9.885,-34.0322 9.885,-53.079 v -8.7908 c 0,-14.1507 -2.2068,-27.0959 -6.5836,-38.7984 -4.3956,-11.7211 -10.5159,-22.2183 -18.305,-31.4913 -7.8266,-9.273 -16.9699,-17.2108 -27.4669,-23.7946 -10.497,-6.6025 -21.8472,-11.61 -34.0507,-15.0224 v -8.7722 c 24.4067,-6.8436 44.9186,-19.9 61.5176,-39.1881 16.5988,-19.2692 24.8886,-42.8229 24.8886,-70.6605 v -8.7909 c 0,-19.0284 -3.3011,-36.7213 -9.885,-53.0789 -6.6025,-16.3577 -16.3575,-30.5084 -29.2841,-42.4706 -12.9454,-11.9623 -28.8022,-21.3466 -47.6079,-28.1903 -18.7871,-6.8433 -40.3935,-10.2558 -64.8002,-10.2558 h -207.2155 z m 105.4346,0 h 97.3856 c 28.802,0 52.2259,7.1959 70.2895,21.6062 18.064,14.3917 27.096,34.2915 27.096,59.6812 v 4.377 c 0,26.3725 -8.5312,47.2368 -25.6121,62.6116 -17.0995,15.3746 -40.2821,23.0712 -69.5665,23.0712 h -99.5925 z m 0,228.4507 h 99.5925 c 29.2844,0 52.467,7.5669 69.5665,22.7005 17.0809,15.1335 25.6121,35.8868 25.6121,62.2407 v 4.3955 c 0,24.8888 -9.032,44.5477 -27.096,58.9395 -18.0636,14.4103 -41.4875,21.6063 -70.2895,21.6063 h -97.3856 z m 623.8723,77.6155 h 57.1033 v -363.1883 h -57.1033 v 65.9128 h -8.7908 c -11.7211,-23.4422 -27.0959,-41.9883 -46.1242,-55.657 -19.0469,-13.6683 -43.2125,-20.4932 -72.4967,-20.4932 -20.0113,0 -38.4461,3.2826 -55.286,9.8849 -16.8397,6.584 -31.2501,16.469 -43.2125,29.6368 -11.9435,13.1863 -21.2166,29.544 -27.8191,49.0729 -6.5839,19.5291 -9.885,42.2296 -9.885,68.1014 v 216.7297 h 57.1221 v -209.4225 c 0,-38.0752 7.8078,-65.8943 23.4237,-83.4761 15.6343,-17.5632 39.5587,-26.354 71.7548,-26.354 34.6627,0 61.8884,11.8324 81.6584,35.5158 19.7701,23.6833 29.6553,55.2858 29.6553,94.8263 z m 301.671,108.3834 c 0,14.1506 5.0072,26.2243 15.0222,36.2391 10.0149,10.0149 22.0885,15.0223 36.2393,15.0223 14.169,0 26.2425,-5.0074 36.2575,-15.0223 9.9963,-10.0148 15.0038,-22.0885 15.0038,-36.2391 0,-14.1692 -5.0075,-26.2427 -15.0038,-36.2575 -10.015,-9.9965 -22.0885,-15.004 -36.2575,-15.004 -14.1508,0 -26.2244,5.0075 -36.2393,15.004 -10.015,10.0148 -15.0222,22.0883 -15.0222,36.2575 z m -103.9695,-418.8452 h 127.4116 v 257.7538 h -114.2254 v 52.708 h 171.3475 v -310.4618 h 118.6208 v -52.7265 h -303.1545 z m 439.3571,0 h 131.7886 v 407.1241 h -127.4117 v 52.7266 h 184.5337 v -459.8507 h 131.7885 v -52.7265 h -320.6991 z m 729.3069,2.9303 h -8.7908 c -5.8607,-11.239 -13.3162,-20.9941 -22.3296,-29.2843 -9.0504,-8.3085 -18.8056,-15.1335 -29.3029,-20.5119 -10.4969,-5.3598 -21.6061,-9.4029 -33.3087,-12.0923 -11.721,-2.6705 -22.9415,-4.0057 -33.6983,-4.0057 -24.3882,0 -47.0885,4.1357 -68.0826,12.4444 -20.9943,8.29 -39.4106,20.2523 -55.2861,35.8866 -15.8568,15.6159 -28.3199,35.0152 -37.3518,58.1977 -9.0319,23.2012 -13.5385,49.6664 -13.5385,79.4515 v 11.7212 c 0,29.2843 4.6363,55.5268 13.9094,78.7097 9.273,23.1826 21.7175,42.7115 37.352,58.5871 15.6156,15.8569 33.9207,27.9304 54.915,36.239 20.9941,8.3087 43.1937,12.4445 66.636,12.4445 24.8889,0 48.2014,-5.4896 69.9189,-16.469 21.7175,-10.9792 38.446,-27.949 50.1672,-50.8905 h 8.7908 v 206.4924 h 57.1035 v -512.5772 h -57.1035 z M 6812.784,2536.368 c 17.0994,0 32.9564,3.1714 47.6078,9.5141 14.6515,6.3614 27.4484,15.3933 38.4276,27.096 10.9978,11.721 19.6589,25.7605 26.0016,42.0995 6.3428,16.3578 9.5327,34.5515 9.5327,54.5625 v 8.791 c 0,19.5105 -3.1899,37.4632 -9.5327,53.8209 -6.3427,16.3576 -15.0038,30.3784 -26.0016,42.0996 -10.9792,11.7025 -23.906,20.8643 -38.7984,27.4482 -14.8926,6.6023 -30.6382,9.8851 -47.237,9.8851 -17.081,0 -33.0677,-3.1715 -47.9602,-9.5143 -14.8925,-6.3427 -27.8191,-15.3745 -38.7983,-27.0958 -10.9793,-11.7025 -19.5292,-25.6122 -25.6308,-41.7287 -6.1018,-16.1165 -9.1434,-33.9207 -9.1434,-53.4498 v -11.7212 c 0,-20.512 3.0416,-38.817 9.1434,-54.915 6.1016,-16.1165 14.6515,-29.915 25.6308,-41.3763 10.9792,-11.48 23.7947,-20.2523 38.4459,-26.3539 14.6329,-6.1019 30.7494,-9.1619 48.3126,-9.1619 z m 330.2503,120.086 c 1.4652,-36.1094 12.6856,-65.1709 33.6799,-87.1295 20.994,-21.9772 50.2785,-32.9565 87.8715,-32.9565 17.0808,0 31.9733,1.9474 44.6588,5.8606 12.7042,3.9132 23.5537,9.273 32.6042,16.1165 9.0133,6.8249 16.3391,14.7628 21.9585,23.7948 5.6195,9.0319 10.1262,18.6759 13.5387,28.9317 l 54.1916,-14.6515 c -10.2558,-33.6981 -29.173,-61.1463 -56.751,-82.3817 -27.578,-21.2353 -64.8,-31.8435 -111.6661,-31.8435 -25.8717,0 -49.6664,4.5067 -71.4025,13.5385 -21.7174,9.032 -40.3934,21.8474 -56.0092,38.4461 -15.6158,16.5986 -27.8192,36.3689 -36.61,59.3106 -8.7908,22.9414 -13.1863,48.331 -13.1863,76.15 v 17.5819 c 0,25.3711 4.5254,49.0544 13.5388,71.013 9.0505,21.9771 21.6062,40.8941 37.7226,56.7511 16.1166,15.857 35.0336,28.3198 56.7511,37.3518 21.7174,9.032 45.271,13.5387 70.6608,13.5387 29.7663,0 55.527,-5.4896 77.263,-16.469 21.7175,-10.9792 39.5217,-24.5365 53.4498,-40.6345 13.9097,-16.1165 24.1655,-33.6983 30.7494,-52.7265 6.5839,-19.047 9.8853,-36.61 9.8853,-52.7266 v -46.866 z m 121.5514,155.2309 c -16.0982,0 -31.1205,-2.5593 -45.03,-7.678 -13.9095,-5.1374 -26.1129,-12.3333 -36.61,-21.6063 -10.497,-9.273 -19.0469,-20.1411 -25.6308,-32.5856 -6.5837,-12.4442 -10.8681,-25.983 -12.8154,-40.6344 h 234.3115 c -0.9643,15.6159 -4.7477,29.7849 -11.3502,42.4705 -6.5838,12.6855 -15.1336,23.4237 -25.6121,32.2145 -10.4973,8.791 -22.4593,15.616 -35.8868,20.512 -13.4274,4.8778 -27.2256,7.3073 -41.3762,7.3073 z m 264.3375,43.9357 h 131.8071 v -48.3311 h 8.7909 c 9.273,20.0299 22.4592,34.7925 39.5403,44.3066 17.0809,9.514 36.61,14.2805 58.5687,14.2805 36.61,0 66.1538,-11.9623 88.6131,-35.8682 22.4409,-23.9244 34.403,-58.8283 35.8681,-104.7113 l -60.0522,-8.7908 c 0,33.6798 -8.049,57.9566 -24.147,72.8491 -16.1165,14.8925 -35.8868,22.3295 -59.3105,22.3295 -15.1337,0 -28.19,-2.9118 -39.1694,-8.7723 -10.9978,-5.8606 -20.141,-13.9095 -27.4668,-24.1656 -7.3256,-10.2559 -12.6853,-22.2184 -16.1165,-35.8866 -3.4125,-13.6686 -5.1187,-28.32 -5.1187,-43.9358 v -153.7658 h 92.2669 v -52.7265 h -232.8648 v 52.7265 h 83.4758 v 257.7538 h -74.685 v 52.708"
         style="fill:#324661;fill-opacity:1;fill-rule:nonzero;stroke:none;stroke-width:1.85461"
         id="path850" />
      <path
         d="m 4420.504,3548.0839 c -9.5382,-5.8919 -54.312,-39.6113 -57.4787,-37.3851 -208.7652,195.2736 -752.1537,365.9054 -1031.4477,365.9054 -188.1921,0 -382.6597,-29.6125 -564.6144,-82.9457 v 2109.128 c 181.9547,59.2442 376.4223,88.8567 564.6144,88.8567 384.0797,0 750.8678,-119.2752 1012.6401,-326.6971 274.5921,207.4219 643.3762,326.6971 1017.9946,326.6971 195.7918,0 385.2696,-29.6125 568.4334,-88.8567 V 3793.6777 c -594.2268,167.2156 -983.4115,80.0477 -1510.1417,-245.5938 z m -152.6301,1488.0139 c -5.9878,-11.1695 -21.5329,-11.2271 -34.2185,-11.7452 -9.5574,-0.3646 -19.0956,-1.8616 -28.3075,-4.4141 -14.8542,-4.1261 -29.5357,-11.0927 -44.8889,-9.8261 -29.8621,2.4374 -52.9686,35.0438 -82.6771,31.2439 31.0519,10.2866 64.234,19.5753 96.0727,12.129 16.0633,-3.7616 30.8791,-11.6109 46.5778,-16.6391 15.7179,-5.009 33.6044,-6.9856 48.1707,0.7485 z m 256.1875,109.1997 c 15.8138,-15.6028 17.042,-46.1364 2.2262,-64.5986 -18.2512,-22.742 -50.8959,-28.9025 -79.8175,-25.045 -28.9025,3.8383 -56.02,15.833 -84.27,23.0682 -24.9874,6.3908 -50.915,9.0392 -76.6892,7.811 -11.323,-0.5374 -22.9914,-1.7656 -33.7196,1.8807 -37.7881,12.8392 -35.1204,70.1834 -64.8481,96.802 -22.3197,19.9784 -57.1139,17.1572 -85.0567,6.3908 -27.9429,-10.7472 -53.4676,-28.1348 -82.7155,-34.5255 -52.8534,-11.5725 -107.3189,15.3532 -147.1989,51.8938 -99.0857,90.795 -130.2528,247.8393 -73.3116,369.6094 -93.3091,-46.29 -132.2486,-167.1389 -108.0481,-268.4509 24.2004,-101.2928 98.7594,-183.7971 182.684,-245.4595 -101.2161,49.5142 -204.1594,105.4766 -271.4448,195.8686 -67.2854,90.4113 -88.6456,224.5215 -20.6693,314.3953 -57.5937,-45.0232 -103.4038,-110.8884 -106.4169,-183.9122 -1.2474,-30.5913 4.9514,-61.0482 13.53,-90.4304 58.515,-200.3978 237.4182,-360.359 443.0745,-396.2088 -73.4268,-87.7627 -105.8029,-208.5158 -86.1508,-321.2467 19.6713,-112.7309 91.0062,-215.3671 189.8233,-273.0952 115.2835,-67.3622 257.9147,-71.2389 388.2059,-37.9032 0,0 -164.1258,-0.9596 -271.0801,57.4401 -107.53,58.6877 -202.5855,146.9686 -211.3177,270.9842 -1.8616,26.4459 9.423,59.2058 30.6872,75.0964 9.7493,7.2928 22.6076,8.9048 34.7942,8.8089 69.0702,-0.5566 130.1953,-47.2879 198.8816,-54.5615 40.7436,-4.3181 81.468,5.508 122.1924,10.1139 40.7052,4.5868 84.9225,3.0707 118.3157,-20.65 6.6979,-4.7595 13.0502,-10.4402 20.9571,-12.6088 17.0805,-4.7211 33.7387,8.3675 45.3112,21.7631 41.281,47.8061 14.8351,94.5566 8.3867,157.3896 -23.5288,-59.2058 -44.3132,-51.8171 -98.6636,-46.7121 -39.8416,3.7615 -343.4321,90.2385 -381.7192,95.0171 7.6383,19.0956 273.1912,11.0736 391.0271,41.3386 22.1662,5.6998 62.5068,9.6917 80.4508,-4.5484 14.3744,-11.4189 10.8624,-68.3602 10.8624,-68.3602 18.5582,9.1544 24.7763,92.292 24.7763,92.292 57.9775,5.009 81.9093,70.7783 71.0086,127.9306 -9.922,52.0474 -48.996,93.6355 -94.0576,122.4227 z m 473.7616,247.9159 c -55.7897,-29.766 -104.8432,-77.8791 -121.2327,-138.9657 -9.6342,-35.8689 -7.5423,-73.8873 -1.9,-110.5815 16.1592,-105.0736 60.2806,-203.5068 89.5284,-305.7016 20.6884,-72.2752 34.7366,-158.0229 17.2148,-232.2557 -18.0208,-76.2287 -52.3928,-155.4129 -101.6575,-215.5974 -58.1118,-71.0087 -134.283,-135.0507 -212.3541,-183.4517 -209.3601,-129.7538 -334.6232,-150.4807 -535.9037,-121.5015 -137.3921,19.7865 -246.112,81.8902 -333.5294,187.5011 -78.5124,94.8828 -138.6011,207.8633 -155.8158,329.8061 -16.1785,114.631 8.6745,237.3799 78.8195,328.885 -35.4468,20.7844 -62.4683,42.7779 -83.0608,64.1573 -197.2888,-166.4097 -200.5897,-420.7164 -163.2239,-526.9223 -12.2058,42.7779 51.3181,105.6877 92.3496,122.8066 0,0 -34.468,-136.5477 10.9967,-263.8258 28.7873,-80.47 73.6187,-180.5153 179.8245,-242.1393 -19.5178,35.5235 -21.149,132.5558 -4.3949,169.4802 62.0078,-144.9918 191.4162,-259.4884 342.8564,-303.341 -20.5733,25.7358 -35.0245,56.3271 -41.8375,88.588 70.2985,-27.559 140.597,-55.0988 210.8956,-82.6386 45.9444,-18.0016 93.6929,-36.3104 142.9576,-33.5851 -15.0654,24.1812 -30.1308,48.3434 -45.1961,72.5054 81.468,-28.4417 205.2149,-29.2094 288.103,-5.2009 82.8689,24.0086 173.4529,66.0189 249.5473,106.7241 -29.1135,15.1804 -105.3231,36.2335 -134.4174,51.414 203.7755,16.0825 389.5685,169.5187 443.8997,366.5579 -58.4382,-35.274 -116.8571,-70.548 -175.2953,-105.8411 0,0 87.5133,166.8509 76.9772,344.3148 -8.214,138.6587 -53.5444,246.4575 -91.083,380.184 -54.7725,195.0624 55.1757,244.2503 157.0825,316.0457 -61.739,-13.6451 -124.3609,-27.6357 -180.1507,-57.421 z m -58.5725,97.1283 c -83.2335,-35.8881 -146.8918,-101.5807 -182.3577,-185.1789 -41.185,-97.0323 -26.1388,-186.5607 2.8595,-284.6678 29.459,-99.6423 71.3156,-199.3037 73.2541,-304.6844 1.9766,-109.0269 -43.2002,-228.0143 -116.6077,-307.1602 -179.7477,-193.815 -508.364,-278.2577 -726.1493,-113.3642 -296.5856,224.5599 -170.1135,514.1406 -136.1062,579.411 -38.6709,11.7643 -72.0833,25.0833 -100.8897,39.3042 -26.1773,-54.2929 -46.5395,-112.3855 -56.4039,-171.6297 -19.2491,-115.3794 4.1454,-231.181 60.7219,-333.203 22.2814,-40.2063 50.6464,-75.8257 81.2185,-109.9674 64.8289,-72.4096 146.7575,-126.5296 239.4333,-156.1038 161.1896,-51.4332 340.3039,-23.1642 490.1897,50.3777 149.4443,73.3308 285.9919,203.4684 332.5313,367.2296 23.3752,82.3508 21.4177,165.7763 1.1131,248.3574 -23.9511,97.4161 -70.3369,188.4222 -87.8588,287.5848 -27.962,158.234 40.4174,301.5371 188.3647,368.7841 74.8469,34.0266 157.2937,47.1727 238.8577,57.6705 -101.101,23.8551 -206.0402,8.7129 -302.1705,-32.7599 z m 558.2427,-233.1385 39.074,-127.2014 127.2013,-39.0739 -127.2013,-39.0739 -39.074,-127.2014 -39.0738,127.2014 -127.2206,39.0739 127.2206,39.0739 z m -128.6982,-257.3774 8.8472,-28.7489 28.7489,-8.8473 -28.7489,-8.828 -8.8472,-28.749 -8.8281,28.749 -28.7681,8.828 28.7681,8.8473 z m -2221.4368,50.6081 -27.0792,-88.1275 -88.1467,-27.0792 88.1467,-27.0793 27.0792,-88.1466 27.0792,88.1466 88.1274,27.0793 -88.1274,27.0792 z m 128.6791,-206.3089 -8.8282,-28.768 -28.7679,-8.8281 28.7679,-8.8281 8.8282,-28.7681 8.8473,28.7681 28.7489,8.8281 -28.7489,8.8281 -8.8473,28.768"
         style="fill:#ff4500;fill-opacity:1;fill-rule:evenodd;stroke:none;stroke-width:1.91915"
         id="path852" />
      <path
         d="m 4342.8935,3367.0887 c -43.7375,0 -463.1872,391.0079 -1042.7325,391.0079 -195.5231,0 -385.0969,-35.5427 -574.6515,-100.6979 -17.7905,-5.9302 -35.5619,-5.9302 -53.3332,5.9302 -17.7714,11.8411 -23.6823,29.6124 -23.6823,47.3838 v 1913.6049 h -5.9302 c -47.4222,-11.8411 -88.8759,-23.7014 -136.2789,-41.4536 V 3485.5963 c 195.504,65.1744 402.8683,94.7869 627.9846,94.7869 468.0427,0 913.7464,-147.6211 1221.8277,-426.0516 313.9924,278.4305 733.2693,426.0516 1207.223,426.0516 225.174,0 432.4807,-29.6125 628.0038,-94.7869 V 5582.864 c -47.403,17.7522 -88.8759,29.6125 -136.2789,41.4536 h -5.8918 V 3710.7127 c 0,-17.7714 -11.8987,-35.5427 -23.7207,-47.3838 -17.7905,-11.8412 -35.5235,-11.8412 -53.314,-5.9302 -183.6244,65.1552 -379.1667,100.6979 -574.6899,100.6979 -590.6572,0 -996.8456,-391.0079 -1042.694,-391.0079 h -5.9111 -5.9301"
         style="fill:#324661;fill-opacity:1;fill-rule:evenodd;stroke:none;stroke-width:1.91915"
         id="path854" />
      <text
         xml:space="preserve"
         style="font-style:normal;font-weight:normal;font-size:300px;line-height:1.25;font-family:sans-serif;fill:#000000;fill-opacity:1;stroke:none;stroke-width:7.5"
         x="2772.0601"
         y="-1417.9"
         id="text5227"
         transform="scale(1,-1)"><tspan
           id="tspan5225"
           style="stroke-width:7.5"
           x="2772.0601"
           y="-1417.9" /></text>
    </g>
  </g>
</svg>
