<?xml version="1.0" encoding="UTF-8" standalone="no"?>
<!-- Created with Inkscape (http://www.inkscape.org/) -->

<svg
   width="150mm"
   height="150mm"
   viewBox="0 0 150 150"
   version="1.1"
   id="svg5"
   xmlns="http://www.w3.org/2000/svg"
   xmlns:svg="http://www.w3.org/2000/svg">
  <defs
     id="defs2" />
  <g
     id="layer2"
     style="display:inline">
    <path
       d="m 0,139.85755 h 0.929972 v -8.43138 H 0 v -1.20909 h 4.386455 c 0.516216,0 0.973546,0.0722 1.37121,0.21709 0.398056,0.14485 0.733693,0.34113 1.007701,0.58884 0.273612,0.24809 0.480491,0.54526 0.61985,0.8915 0.139355,0.34584 0.209233,0.72034 0.209233,1.12351 v 0.18607 c 0,0.29953 -0.04672,0.57353 -0.139359,0.82124 -0.09304,0.24809 -0.222187,0.47028 -0.387458,0.66656 -0.165268,0.19627 -0.35919,0.36429 -0.581377,0.50364 -0.222188,0.13976 -0.462434,0.24575 -0.72074,0.31798 v 0.18568 c 0.516607,0.14486 0.950778,0.42122 1.302117,0.82949 0.351344,0.40786 0.526817,0.90641 0.526817,1.49564 v 0.18608 c 0,0.40276 -0.06988,0.77726 -0.209233,1.1235 -0.139359,0.34623 -0.346238,0.64576 -0.61985,0.89896 -0.274008,0.2532 -0.609645,0.45183 -1.007701,0.5967 -0.397664,0.14484 -0.854994,0.21707 -1.37121,0.21707 H 0 Z m 2.231699,0 h 2.061325 c 0.609647,0 1.105449,-0.15231 1.488193,-0.45733 0.381961,-0.30462 0.573529,-0.72584 0.573529,-1.26325 v -0.0926 c 0,-0.55821 -0.180972,-0.99985 -0.542517,-1.32528 -0.361936,-0.32543 -0.852638,-0.48834 -1.472488,-0.48834 H 2.231699 Z m 0,-4.83554 h 2.108042 c 0.61985,0 1.110552,-0.16016 1.472488,-0.48049 0.361545,-0.32032 0.542517,-0.7596 0.542517,-1.31743 v -0.093 c 0,-0.52681 -0.191568,-0.94294 -0.573529,-1.24756 C 5.398473,131.57852 4.902671,131.4262 4.293024,131.4262 H 2.231699 Z m 8.602148,2.57284 c 0.03102,0.7643 0.268511,1.37944 0.712886,1.84423 0.444378,0.46519 1.064231,0.69759 1.859945,0.69759 0.361551,0 0.676774,-0.0412 0.945285,-0.12405 0.268899,-0.0829 0.498547,-0.19629 0.689724,-0.34114 0.191177,-0.14446 0.346238,-0.31248 0.465182,-0.50365 0.118557,-0.19118 0.21434,-0.39531 0.286571,-0.6124 l 1.147056,0.31014 c -0.217084,0.71327 -0.617495,1.29425 -1.201232,1.74373 -0.583734,0.44948 -1.371598,0.67402 -2.363597,0.67402 -0.54762,0 -1.051275,-0.0954 -1.511355,-0.28655 -0.459685,-0.19119 -0.854992,-0.46244 -1.185524,-0.81379 -0.330536,-0.35133 -0.589231,-0.7698 -0.774914,-1.25541 -0.186072,-0.48558 -0.279108,-1.023 -0.279108,-1.61183 v -0.37216 c 0,-0.53701 0.09578,-1.03831 0.286959,-1.5031 0.191178,-0.46519 0.456939,-0.8656 0.798074,-1.20124 0.340739,-0.33563 0.741151,-0.59943 1.201232,-0.7906 0.459682,-0.19118 0.958234,-0.28657 1.495647,-0.28657 0.63045,0 1.175326,0.11619 1.635009,0.34859 0.460081,0.23239 0.836937,0.51936 1.131358,0.8601 0.29481,0.34113 0.511503,0.71327 0.651254,1.11604 0.139359,0.40316 0.208841,0.77492 0.208841,1.11605 v 0.992 z m 2.572831,-3.28573 c -0.341135,0 -0.658712,0.0541 -0.95313,0.16252 -0.29442,0.10869 -0.553119,0.26106 -0.774914,0.45734 -0.222187,0.19627 -0.40316,0.42631 -0.542514,0.68972 -0.139754,0.2634 -0.230042,0.54997 -0.271258,0.8601 h 4.959592 c -0.02041,-0.33054 -0.100892,-0.63045 -0.24025,-0.89896 -0.139356,-0.26851 -0.320327,-0.49581 -0.542517,-0.68188 -0.222185,-0.18607 -0.475389,-0.33054 -0.759206,-0.43417 -0.284216,-0.10327 -0.576277,-0.15467 -0.875803,-0.15467 z m 7.625462,1.05363 c 0,0.37214 0.157809,0.65636 0.472643,0.85264 0.315224,0.19628 0.8915,0.32543 1.728044,0.38746 0.899355,0.0722 1.583585,0.28657 2.053871,0.643 0.470286,0.35645 0.705035,0.87581 0.705035,1.55808 v 0.0926 c 0,0.37214 -0.07458,0.70543 -0.224544,0.99985 -0.14996,0.29442 -0.356443,0.54487 -0.620243,0.75175 -0.263405,0.20649 -0.583737,0.36429 -0.960594,0.47264 -0.377247,0.10834 -0.787864,0.16251 -1.232239,0.16251 -0.599441,0 -1.113299,-0.0801 -1.542366,-0.23985 -0.428674,-0.16016 -0.785117,-0.37215 -1.069332,-0.63594 -0.284213,-0.26302 -0.498551,-0.56292 -0.643009,-0.89857 -0.144856,-0.33603 -0.227292,-0.67441 -0.248101,-1.01515 l 1.147059,-0.27912 c 0.05143,0.58924 0.278716,1.06188 0.681874,1.41832 0.402768,0.35645 0.940181,0.53466 1.611848,0.53466 0.568429,0 1.025366,-0.11111 1.371604,-0.33328 0.346235,-0.22218 0.519355,-0.53465 0.519355,-0.93782 0,-0.43378 -0.170373,-0.7439 -0.511504,-0.92998 -0.341134,-0.18567 -0.893858,-0.30462 -1.658563,-0.35644 -0.888361,-0.0621 -1.570239,-0.2685 -2.045627,-0.61985 -0.475388,-0.35133 -0.713279,-0.86284 -0.713279,-1.53451 v -0.093 c 0,-0.36155 0.07772,-0.67913 0.232788,-0.95313 0.154668,-0.27363 0.364294,-0.50366 0.627704,-0.68973 0.263405,-0.18608 0.560571,-0.32544 0.891106,-0.41846 0.330534,-0.093 0.676772,-0.13936 1.038319,-0.13936 0.506403,0 0.950778,0.0699 1.333132,0.20922 0.382354,0.13936 0.702285,0.32033 0.960987,0.54213 0.257909,0.22257 0.456937,0.47814 0.596686,0.76745 0.139361,0.28932 0.229648,0.57863 0.271259,0.86795 l -1.147058,0.27911 c -0.05182,-0.4962 -0.250452,-0.88366 -0.59669,-1.16237 -0.346236,-0.2791 -0.79807,-0.41846 -1.356293,-0.41846 -0.217082,0 -0.42632,0.0232 -0.627702,0.0695 -0.201379,0.0467 -0.379605,0.11619 -0.534665,0.20924 -0.155059,0.093 -0.27911,0.20922 -0.37175,0.34898 -0.09344,0.13935 -0.139755,0.30187 -0.139755,0.48795 z m 7.625465,-1.9836 h 2.417769 v -3.16207 h 1.209086 v 3.16207 h 2.975988 v 1.11565 H 32.28446 v 4.99099 c 0,0.30974 0.13975,0.46481 0.418463,0.46481 h 2.18538 v 1.11603 h -2.619154 c -0.351342,0 -0.6383,-0.11342 -0.860097,-0.34112 -0.222582,-0.2273 -0.333678,-0.51661 -0.333678,-0.86796 v -5.36275 h -2.417769 z m 12.135964,-2.29412 c 0,-0.29951 0.1056,-0.55508 0.317585,-0.76705 0.21198,-0.21199 0.467538,-0.31798 0.76745,-0.31798 0.299524,0 0.555081,0.10604 0.767061,0.31798 0.21159,0.21197 0.31758,0.46754 0.31758,0.76705 0,0.29992 -0.105992,0.55547 -0.31758,0.76746 -0.21198,0.21159 -0.467537,0.31758 -0.767061,0.31758 -0.299912,0 -0.55547,-0.10604 -0.76745,-0.31758 -0.211985,-0.21199 -0.317585,-0.46754 -0.317585,-0.76746 z m -2.201077,8.86557 h 2.697275 v -5.4558 h -2.418163 v -1.11565 h 3.626851 v 6.57145 h 2.510807 v 1.11603 h -6.41677 z m 14.879173,-0.18608 h -0.185683 c -0.248099,0.51661 -0.591587,0.89896 -1.030861,1.14706 -0.439272,0.2481 -0.901709,0.37174 -1.387306,0.37174 -0.5064,0 -0.976294,-0.0848 -1.410464,-0.25555 -0.433775,-0.17037 -0.813382,-0.42357 -1.138815,-0.7596 -0.325821,-0.33564 -0.581375,-0.74626 -0.767449,-1.23185 -0.186076,-0.48559 -0.27911,-1.04892 -0.27911,-1.68957 v -0.2481 c 0,-0.63006 0.09303,-1.18789 0.27911,-1.67388 0.186074,-0.48559 0.441628,-0.8962 0.767449,-1.23224 0.325433,-0.33564 0.70504,-0.59119 1.138815,-0.76706 0.43417,-0.17587 0.893858,-0.2634 1.379455,-0.2634 0.526813,0 1.004953,0.11619 1.433626,0.34859 0.429068,0.23239 0.767451,0.59159 1.01555,1.07718 h 0.185683 v -1.20869 h 1.209079 v 6.10664 c 0,0.30974 0.139356,0.46481 0.41847,0.46481 h 0.387456 v 1.11603 h -0.821235 c -0.351342,0 -0.638302,-0.11342 -0.860489,-0.34112 -0.222187,-0.2273 -0.333281,-0.51661 -0.333281,-0.86796 z m -2.4798,0.37215 c 0.361547,0 0.694833,-0.0672 0.999847,-0.20139 0.304626,-0.13465 0.565682,-0.32582 0.782375,-0.57353 0.217084,-0.2481 0.387847,-0.54527 0.511895,-0.89111 0.123655,-0.34624 0.185683,-0.73133 0.185683,-1.1549 v -0.18608 c 0,-0.41297 -0.06203,-0.79297 -0.185683,-1.13921 -0.124048,-0.34624 -0.29717,-0.64301 -0.519357,-0.89111 -0.222185,-0.24771 -0.485595,-0.44162 -0.790613,-0.58098 -0.304625,-0.13976 -0.632805,-0.20924 -0.984147,-0.20924 -0.361549,0 -0.692078,0.0671 -0.991998,0.20139 -0.299521,0.13425 -0.560182,0.32267 -0.78276,0.56567 -0.222191,0.243 -0.394917,0.53741 -0.519361,0.88365 -0.123655,0.34585 -0.185676,0.72545 -0.185676,1.13882 v 0.2481 c 0,0.87815 0.230038,1.56278 0.689725,2.05347 0.459687,0.49109 1.056377,0.73645 1.79007,0.73645 z m 5.951981,-6.75752 h 2.789523 v 1.023 h 0.186077 c 0.196278,-0.42395 0.475389,-0.73644 0.836938,-0.93782 0.361547,-0.20138 0.77491,-0.30226 1.239701,-0.30226 0.775305,0 1.400259,0.2532 1.875648,0.75921 0.475388,0.5064 0.728197,1.24519 0.75921,2.21639 l -1.270718,0.18606 c 0,-0.71289 -0.170758,-1.22674 -0.511502,-1.54197 -0.341134,-0.31522 -0.759602,-0.47264 -1.255407,-0.47264 -0.320325,0 -0.596688,0.0616 -0.829081,0.18568 -0.232788,0.12405 -0.426319,0.29442 -0.58138,0.51151 -0.155061,0.21708 -0.268512,0.47028 -0.341135,0.7596 -0.07223,0.28931 -0.108346,0.59943 -0.108346,0.92997 v 3.25472 h 1.952985 v 1.11603 h -4.92897 v -1.11603 h 1.766908 v -5.4558 h -1.580446 z m 15.499022,6.29233 h -0.18607 c -0.2481,0.49619 -0.573532,0.88875 -0.976693,1.17808 -0.402761,0.2893 -0.914265,0.43376 -1.534118,0.43376 -0.423965,0 -0.813774,-0.0695 -1.170217,-0.20922 -0.356446,-0.13937 -0.661462,-0.34859 -0.914664,-0.62732 -0.25281,-0.27911 -0.449483,-0.62535 -0.58884,-1.03871 -0.139357,-0.41337 -0.209234,-0.89385 -0.209234,-1.44148 v -4.58744 h 1.209082 v 4.43278 c 0,0.80592 0.165269,1.39476 0.495804,1.76691 0.330534,0.37176 0.836937,0.55783 1.518814,0.55783 0.733692,0 1.309573,-0.25046 1.72804,-0.75176 0.418468,-0.5013 0.628096,-1.17022 0.628096,-2.00716 v -3.9986 h 1.208693 v 9.57845 c 0,0.35133 -0.111092,0.64026 -0.333286,0.86795 -0.222187,0.22728 -0.508756,0.34073 -0.860098,0.34073 h -4.386063 v -1.11604 h 3.951893 c 0.279112,0 0.418861,-0.15467 0.418861,-0.46479 z m 12.92619,0.18607 h 0.929579 v -8.43138 h -0.929579 v -1.20909 h 4.386064 c 0.51661,0 0.97394,0.0722 1.3716,0.21709 0.39806,0.14485 0.73369,0.34113 1.0077,0.58884 0.27362,0.24809 0.4801,0.54526 0.61985,0.8915 0.13936,0.34584 0.20923,0.72034 0.20923,1.12351 v 0.18607 c 0,0.29953 -0.0467,0.57353 -0.13935,0.82124 -0.093,0.24809 -0.22259,0.47028 -0.38746,0.66656 -0.16566,0.19627 -0.35919,0.36429 -0.58138,0.50364 -0.22219,0.13976 -0.46243,0.24575 -0.72074,0.31798 v 0.18568 c 0.51661,0.14486 0.95078,0.42122 1.30212,0.82949 0.35134,0.40786 0.52681,0.90641 0.52681,1.49564 v 0.18608 c 0,0.40276 -0.0699,0.77726 -0.20923,1.1235 -0.13975,0.34623 -0.34623,0.64576 -0.61985,0.89896 -0.27401,0.2532 -0.60964,0.45183 -1.0077,0.5967 -0.39766,0.14484 -0.85499,0.21707 -1.3716,0.21707 h -4.386064 z m 2.231699,0 h 2.061325 c 0.60965,0 1.10545,-0.15231 1.4878,-0.45733 0.38235,-0.30462 0.57353,-0.72584 0.57353,-1.26325 v -0.0926 c 0,-0.55821 -0.18058,-0.99985 -0.54212,-1.32528 -0.36194,-0.32543 -0.85264,-0.48834 -1.47249,-0.48834 h -2.108045 z m 0,-4.83554 h 2.108045 c 0.61985,0 1.11055,-0.16016 1.47249,-0.48049 0.36154,-0.32032 0.54212,-0.7596 0.54212,-1.31743 v -0.093 c 0,-0.52681 -0.19118,-0.94294 -0.57353,-1.24756 -0.38235,-0.30501 -0.87815,-0.45733 -1.4878,-0.45733 h -2.061325 z m 13.205293,-1.64286 h 1.20869 v 7.68748 h -1.20869 v -1.39515 h -0.18607 c -0.2481,0.49619 -0.57353,0.88875 -0.976298,1.17808 -0.40316,0.2893 -0.91466,0.43376 -1.53451,0.43376 -0.42357,0 -0.81377,-0.0695 -1.17022,-0.20922 -0.35644,-0.13937 -0.66146,-0.34859 -0.91466,-0.62732 -0.25281,-0.27911 -0.44909,-0.62535 -0.58884,-1.03871 -0.13936,-0.41337 -0.20923,-0.89385 -0.20923,-1.44148 v -4.58744 h 1.20908 v 4.43278 c 0,0.80592 0.16527,1.39476 0.4958,1.76691 0.33093,0.37176 0.83733,0.55783 1.51881,0.55783 0.7337,0 1.30997,-0.25046 1.728438,-0.75176 0.41847,-0.5013 0.6277,-1.17022 0.6277,-2.00716 z m 6.38537,-2.29412 c 0,-0.29951 0.10604,-0.55508 0.31797,-0.76705 0.21199,-0.21199 0.46754,-0.31798 0.76707,-0.31798 0.29991,0 0.55546,0.10604 0.76745,0.31798 0.21159,0.21197 0.31758,0.46754 0.31758,0.76705 0,0.29992 -0.10604,0.55547 -0.31758,0.76746 -0.21199,0.21159 -0.46754,0.31758 -0.76745,0.31758 -0.29953,0 -0.55508,-0.10604 -0.76707,-0.31758 -0.21198,-0.21199 -0.31797,-0.46754 -0.31797,-0.76746 z m -2.20069,8.86557 h 2.69689 v -5.4558 h -2.41778 v -1.11565 h 3.62686 v 6.57145 h 2.5108 v 1.11603 h -6.41677 z m 9.29973,0 h 2.78953 v -8.61747 h -2.69688 v -1.11605 h 3.90597 v 9.73352 h 2.78951 v 1.11603 h -6.78813 z m 15.437,-0.0621 h -0.18608 c -0.12405,0.23789 -0.28185,0.44438 -0.47264,0.61986 -0.19156,0.17585 -0.39805,0.32032 -0.62025,0.43415 -0.22217,0.11343 -0.45732,0.19904 -0.70502,0.25596 -0.2481,0.0565 -0.48559,0.0848 -0.71328,0.0848 -0.51622,0 -0.99671,-0.0876 -1.44109,-0.2634 -0.44438,-0.17548 -0.83418,-0.42868 -1.17022,-0.7596 -0.33564,-0.33054 -0.59943,-0.74116 -0.79061,-1.23186 -0.19117,-0.49109 -0.28657,-1.05127 -0.28657,-1.68172 v -0.2481 c 0,-0.61984 0.0981,-1.17532 0.29441,-1.66602 0.19628,-0.4907 0.4597,-0.90405 0.79063,-1.24009 0.33053,-0.33564 0.71798,-0.59119 1.16236,-0.76706 0.44438,-0.17587 0.91428,-0.2634 1.41046,-0.2634 0.52682,0 1.02027,0.11619 1.47996,0.34858 0.45968,0.2324 0.81377,0.59159 1.06186,1.07719 h 0.18608 v -4.37076 h 1.20869 v 10.84955 h -1.20869 z m -2.57322,0.2481 c 0.36194,0 0.69758,-0.0671 1.0077,-0.20138 0.31012,-0.13466 0.58098,-0.32582 0.81338,-0.57353 0.23279,-0.2481 0.41611,-0.54528 0.55036,-0.89112 0.13426,-0.34623 0.20178,-0.73133 0.20178,-1.15489 v -0.18608 c 0,-0.41298 -0.0675,-0.79297 -0.20178,-1.13922 -0.13425,-0.34623 -0.31757,-0.643 -0.55036,-0.8911 -0.2324,-0.24771 -0.50601,-0.44163 -0.82124,-0.58099 -0.31522,-0.13975 -0.64851,-0.20924 -0.99984,-0.20924 -0.36155,0 -0.69994,0.0672 -1.01517,0.2014 -0.31522,0.13425 -0.58883,0.32541 -0.82123,0.57351 -0.23239,0.24771 -0.41336,0.54214 -0.54251,0.88326 -0.12916,0.34114 -0.19354,0.71799 -0.19354,1.13136 v 0.2481 c 0,0.43417 0.0644,0.82163 0.19354,1.16236 0.12915,0.34114 0.31012,0.63321 0.54251,0.87581 0.2324,0.24298 0.50366,0.42867 0.81378,0.55782 0.30972,0.12915 0.65086,0.19393 1.02262,0.19393 z m 6.9903,-2.54182 c 0.031,0.76431 0.26851,1.37945 0.71289,1.84424 0.44437,0.46518 1.06423,0.69758 1.85994,0.69758 0.36155,0 0.67677,-0.0412 0.94528,-0.12405 0.2689,-0.0829 0.49855,-0.19628 0.69013,-0.34114 0.19077,-0.14446 0.34584,-0.31248 0.46478,-0.50365 0.11895,-0.19118 0.21433,-0.39531 0.28657,-0.61239 l 1.14706,0.31013 c -0.21709,0.71327 -0.6175,1.29426 -1.20124,1.74374 -0.58373,0.44948 -1.3716,0.67402 -2.36359,0.67402 -0.54762,0 -1.05127,-0.0954 -1.51136,-0.28656 -0.45968,-0.19118 -0.85499,-0.46244 -1.18553,-0.81379 -0.33053,-0.35133 -0.58884,-0.7698 -0.77491,-1.2554 -0.18607,-0.48559 -0.2791,-1.023 -0.2791,-1.61183 v -0.37217 c 0,-0.53701 0.0958,-1.03831 0.28657,-1.5031 0.19157,-0.46518 0.45732,-0.86559 0.79846,-1.20123 0.34113,-0.33563 0.74154,-0.59944 1.20123,-0.79061 0.45968,-0.19118 0.95824,-0.28657 1.49565,-0.28657 0.63006,0 1.17532,0.1162 1.63541,0.34859 0.45968,0.2324 0.83653,0.51936 1.13134,0.8601 0.29443,0.34114 0.51151,0.71327 0.65086,1.11605 0.13936,0.40315 0.20924,0.77491 0.20924,1.11604 v 0.992 z m 2.57283,-3.28573 c -0.34074,0 -0.65872,0.0541 -0.95313,0.16252 -0.29442,0.10869 -0.55273,0.26106 -0.77491,0.45734 -0.22219,0.19627 -0.40317,0.42631 -0.54252,0.68972 -0.13936,0.2634 -0.23004,0.54997 -0.27126,0.8601 h 4.95959 c -0.0204,-0.33054 -0.1005,-0.63045 -0.24024,-0.89896 -0.13936,-0.26851 -0.32033,-0.49581 -0.54212,-0.68187 -0.2222,-0.18607 -0.4754,-0.33055 -0.75962,-0.43417 -0.2842,-0.10327 -0.57627,-0.15468 -0.87579,-0.15468 z m 5.59514,-0.92996 h 2.78992 v 1.023 h 0.18608 c 0.19628,-0.42396 0.47538,-0.73644 0.83693,-0.93783 0.36155,-0.20138 0.77491,-0.30226 1.2397,-0.30226 0.77492,0 1.40027,0.2532 1.87565,0.75921 0.475,0.5064 0.72819,1.2452 0.75921,2.21639 l -1.2711,0.18607 c 0,-0.71289 -0.17038,-1.22675 -0.51112,-1.54198 -0.34114,-0.31522 -0.7596,-0.47264 -1.2554,-0.47264 -0.32033,0 -0.59669,0.0616 -0.82909,0.18568 -0.23278,0.12405 -0.42632,0.29443 -0.58138,0.51151 -0.15505,0.21709 -0.2685,0.47029 -0.34114,0.7596 -0.0722,0.28932 -0.10834,0.59944 -0.10834,0.92998 v 3.25471 h 1.95299 v 1.11603 h -4.92898 v -1.11603 h 1.76691 v -5.4558 h -1.58084 v -1.11564"
       style="fill:#324661;fill-opacity:1;fill-rule:nonzero;stroke:none;stroke-width:0.0392559"
       id="path850" />
  </g>
  <g
     id="layer1">
    <g
       id="g848"
       transform="matrix(0.03527778,0,0,-0.03527778,-28.416169,216.37187)">
      <text
         xml:space="preserve"
         style="font-style:normal;font-weight:normal;font-size:300px;line-height:1.25;font-family:sans-serif;fill:#000000;fill-opacity:1;stroke:none;stroke-width:7.5"
         x="2772.0601"
         y="-1417.9"
         id="text5227"
         transform="scale(1,-1)"><tspan
           id="tspan5225"
           style="stroke-width:7.5"
           x="2772.0601"
           y="-1417.9" /></text>
    </g>
    <g
       id="layer3">
      <path
         d="m 77.5294,111.20335 c -0.336486,0.20785 -1.916007,1.3974 -2.027721,1.31886 -7.364772,-6.88882 -26.534312,-12.908329 -36.387185,-12.908329 -6.638999,0 -13.499384,1.044659 -19.918342,2.926139 V 28.134667 C 25.61511,26.044663 32.475495,25 39.114494,25 52.663973,25 65.603443,29.207764 74.838189,36.525149 84.525189,29.207764 97.535073,25 110.75078,25 c 6.9071,0 13.59145,1.044663 20.05307,3.134667 V 102.53934 C 109.84084,96.640349 96.111272,99.715439 77.5294,111.20335 Z M 72.144949,58.709521 c -0.211236,0.394035 -0.759633,0.396067 -1.207153,0.414344 -0.337163,0.01286 -0.67365,0.06567 -0.998625,0.15572 -0.524023,0.14556 -1.041954,0.391326 -1.583581,0.346643 -1.053469,-0.08599 -1.868615,-1.236267 -2.916665,-1.102215 1.095443,-0.362889 2.266033,-0.690574 3.389232,-0.427885 0.566678,0.132701 1.089346,0.409607 1.643161,0.586991 0.554493,0.176706 1.185489,0.246436 1.699356,-0.02641 z m 9.037726,-3.852323 c 0.557876,0.550432 0.601204,1.62759 0.07854,2.278895 -0.643862,0.802287 -1.795495,1.019616 -2.815784,0.883532 -1.019616,-0.135407 -1.976262,-0.558553 -2.972859,-0.813795 -0.8815,-0.225453 -1.796168,-0.318883 -2.705425,-0.275555 -0.39945,0.01896 -0.811085,0.06229 -1.189552,-0.06635 -1.333081,-0.452938 -1.23897,-2.475914 -2.287697,-3.414959 -0.78739,-0.704794 -2.014852,-0.605268 -3.000612,-0.225453 -0.985763,0.379137 -1.886218,0.992533 -2.918019,1.217983 -1.864551,0.408252 -3.785973,-0.541627 -5.19285,-1.830699 -3.495524,-3.203046 -4.59503,-8.74322 -2.586271,-13.038999 -3.291738,1.633009 -4.665437,5.89629 -3.811697,9.470352 0.853736,3.573385 3.484012,6.483954 6.444686,8.659266 -3.570679,-1.746751 -7.20229,-3.72098 -9.57597,-6.909809 -2.37368,-3.18951 -3.12722,-7.92062 -0.729167,-11.091168 -2.031778,1.588318 -3.647857,3.911896 -3.754152,6.488014 -0.044,1.079193 0.174674,2.153645 0.477308,3.190184 2.06428,7.069589 8.375587,12.712665 15.630685,13.977367 -2.590334,3.096073 -3.732491,7.355974 -3.039209,11.33287 0.69396,3.976896 3.210497,7.597673 6.696545,9.634192 4.066946,2.376389 9.098658,2.513151 13.695042,1.337141 0,0 -5.789994,0.03385 -9.563104,-2.026359 -3.79342,-2.070372 -7.146767,-5.184726 -7.454819,-9.559721 -0.06567,-0.932953 0.332422,-2.088649 1.082576,-2.649234 0.343934,-0.257274 0.797546,-0.314142 1.227462,-0.310759 2.436643,0.01964 4.593001,1.668212 7.016101,1.924809 1.437344,0.152333 2.874011,-0.19431 4.310677,-0.356796 1.435989,-0.161812 2.995877,-0.108328 4.173915,0.728486 0.236287,0.167905 0.460382,0.368307 0.73932,0.44481 0.602562,0.16655 1.190227,-0.295186 1.598479,-0.767753 1.456302,-1.686493 0.523349,-3.335747 0.295864,-5.552356 -0.830044,2.088649 -1.563271,1.827992 -3.480633,1.647899 -1.405523,-0.132697 -12.115522,-3.183414 -13.466206,-3.351992 0.269462,-0.673651 9.637579,-0.390652 13.794568,-1.458334 0.781974,-0.201077 2.205101,-0.341902 2.838126,0.160457 0.507097,0.402834 0.383201,2.411596 0.383201,2.411596 0.654692,-0.322947 0.874053,-3.255857 0.874053,-3.255857 2.045317,-0.176706 2.889578,-2.496901 2.505026,-4.513107 -0.350026,-1.836117 -1.72847,-3.303253 -3.318144,-4.318801 z m 16.713258,-8.745923 c -1.968137,1.050079 -3.698635,2.747402 -4.276821,4.902402 -0.339873,1.265375 -0.266075,2.606579 -0.06703,3.901069 0.57006,3.706764 2.126565,7.179269 3.158363,10.784474 0.729841,2.549709 1.22543,5.574697 0.6073,8.193466 -0.635734,2.689179 -1.848302,5.482622 -3.586251,7.605797 -2.050055,2.50503 -4.737206,4.764289 -7.491381,6.471769 -7.38576,4.577426 -11.804764,5.308625 -18.905493,4.286303 -4.846885,-0.698024 -8.682282,-2.888904 -11.766174,-6.614622 -2.769743,-3.347255 -4.889539,-7.332956 -5.496836,-11.634827 -0.570741,-4.043928 0.306018,-8.374236 2.780577,-11.602333 -1.250484,-0.733228 -2.203742,-1.509109 -2.9302,-2.263327 -6.959911,5.870565 -7.076359,14.84194 -5.758177,18.588649 -0.430594,-1.50911 1.810389,-3.728428 3.257889,-4.332344 0,0 -1.215955,4.817099 0.387939,9.307188 1.015552,2.838803 2.597104,6.368179 6.343809,8.542137 -0.688544,-1.25319 -0.74609,-4.676274 -0.155042,-5.978885 2.187497,5.114989 6.752738,9.154175 12.095213,10.701197 -0.725781,-0.907902 -1.235587,-1.987095 -1.475935,-3.125188 2.479975,0.97222 4.95995,1.943763 7.439929,2.915306 1.620816,0.635057 3.305278,1.280951 5.043227,1.184808 -0.531474,-0.853059 -1.062948,-1.705448 -1.594418,-2.557829 2.87401,1.00336 7.239526,1.030442 10.163634,0.183476 2.923431,-0.84697 6.119033,-2.329 8.803475,-3.76499 -1.02706,-0.53553 -3.715565,-1.278237 -4.741948,-1.813771 7.188747,-0.567355 13.743108,-5.980244 15.659798,-12.931349 -2.06157,1.244388 -4.12246,2.488777 -6.184031,3.733839 0,0 3.087271,-5.88613 2.715581,-12.146662 -0.28977,-4.891571 -1.88892,-8.694474 -3.213202,-13.412048 -1.932252,-6.881368 1.946472,-8.616608 5.541522,-11.14939 -2.17802,0.481369 -4.387177,0.974926 -6.355317,2.025685 z m -2.066308,-3.426471 c -2.936293,1.266053 -5.182016,3.583542 -6.433175,6.532701 -1.452915,3.423084 -0.922118,6.581447 0.100877,10.042448 1.039248,3.515159 2.515856,7.030992 2.584242,10.748589 0.06973,3.846227 -1.524007,8.043838 -4.113661,10.83593 -6.341099,6.837363 -17.933953,9.816314 -25.616935,3.999237 C 51.888092,76.921735 56.349747,66.70597 57.549449,64.403376 56.185225,63.988357 55.00651,63.518492 53.990284,63.016811 c -0.923477,1.915333 -1.64181,3.964711 -1.989804,6.054714 -0.679066,4.07033 0.14624,8.155553 2.142133,11.754663 0.786039,1.418389 1.786693,2.674962 2.865209,3.879405 2.287019,2.55445 5.177279,4.463684 8.446675,5.506996 5.686411,1.814449 12.005166,0.817181 17.292804,-1.777214 5.272064,-2.586947 10.08916,-7.177913 11.730966,-12.955045 0.824626,-2.905153 0.755569,-5.848219 0.03927,-8.761497 -0.844941,-3.436624 -2.481329,-6.647117 -3.099463,-10.145354 -0.986438,-5.582144 1.425836,-10.637559 6.645088,-13.009884 2.640428,-1.200383 5.548968,-1.664148 8.426368,-2.034487 -3.56662,-0.841555 -7.268639,-0.307372 -10.659903,1.155696 z m 19.693565,8.224609 1.37844,4.487383 4.48738,1.378441 -4.48738,1.37844 -1.37844,4.487383 -1.37844,-4.487383 -4.48806,-1.37844 4.48806,-1.378441 z m -4.54019,9.079703 0.31211,1.014198 1.0142,0.312113 -1.0142,0.311432 -0.31211,1.014201 -0.31143,-1.014201 -1.01488,-0.311432 1.01488,-0.312113 z m -78.367357,-1.785341 -0.955294,3.108943 -3.10962,0.955294 3.10962,0.955297 0.955294,3.109617 0.955294,-3.109617 3.108939,-0.955297 -3.108939,-0.955294 z m 4.539513,7.27812 -0.311439,1.014871 -1.014868,0.311436 1.014868,0.311436 0.311439,1.014874 0.312113,-1.014874 1.014197,-0.311436 -1.014197,-0.311436 -0.312113,-1.014871"
         style="fill:#ff4500;fill-opacity:1;fill-rule:evenodd;stroke:none;stroke-width:0.0677034"
         id="path852" />
    </g>
    <g
       id="layer4">
      <path
         d="m 74.791474,117.58846 c -1.542962,0 -16.340216,-13.79389 -36.785288,-13.79389 -6.897621,0 -13.585363,1.25386 -20.272429,3.55239 -0.627609,0.20921 -1.254545,0.20921 -1.881477,-0.2092 -0.626935,-0.41773 -0.835459,-1.04466 -0.835459,-1.67159 V 37.958432 H 14.807617 C 13.134667,38.37616 11.672273,38.794565 10,39.420823 v 73.986947 c 6.896947,-2.29921 14.212299,-3.34387 22.153903,-3.34387 16.511507,0 32.234944,5.20774 43.103368,15.03015 11.076955,-9.82241 25.868109,-15.03015 42.588149,-15.03015 7.94364,0 15.25696,1.04466 22.15458,3.34387 V 39.420823 c -1.67227,-0.626258 -3.13535,-1.044663 -4.80762,-1.462391 h -0.20785 v 67.507738 c 0,0.62693 -0.41976,1.25386 -0.83681,1.67159 -0.62761,0.41773 -1.25319,0.41773 -1.8808,0.2092 -6.47786,-2.29853 -13.37616,-3.55239 -20.27379,-3.55239 -20.83707,0 -35.166495,13.79389 -36.783925,13.79389 h -0.20853 -0.209201"
         style="fill:#324661;fill-opacity:1;fill-rule:evenodd;stroke:none;stroke-width:0.0677034"
         id="path854" />
    </g>
  </g>
</svg>
